/* XPM */
static char *a2f23c0f23b04a52d09b795c71ba92ab[] = {
/* columns rows colors chars-per-pixel */
"64 64 229 2 ",
"   c #0C0701",
".  c #180E01",
"X  c #1C1101",
"o  c #201301",
"O  c #241501",
"+  c #251601",
"@  c #271701",
"#  c #291801",
"$  c #2B1901",
"%  c #2D1B01",
"&  c #2F1C01",
"*  c #311D01",
"=  c #331E01",
"-  c #351F01",
";  c #372001",
":  c #392201",
">  c #3B2301",
",  c #3D2401",
"<  c #3F2501",
"1  c #412601",
"2  c #432701",
"3  c #452801",
"4  c #472A01",
"5  c #492B02",
"6  c #4B2C02",
"7  c #4D2E02",
"8  c #4F2F02",
"9  c #513002",
"0  c #533102",
"q  c #553202",
"w  c #573302",
"e  c #593402",
"r  c #5B3602",
"t  c #5D3702",
"y  c #5F3802",
"u  c #613902",
"i  c #633A02",
"p  c #653B02",
"a  c #673D02",
"s  c #693E02",
"d  c #6B3F02",
"f  c #6C4002",
"g  c #6E4102",
"h  c #704202",
"j  c #724302",
"k  c #744402",
"l  c #764502",
"z  c #784602",
"x  c #7A4802",
"c  c #7C4902",
"v  c #7E4A02",
"b  c #804B02",
"n  c #824C02",
"m  c #844D02",
"M  c #864F02",
"N  c #885002",
"B  c #8A5102",
"V  c #8C5202",
"C  c #8E5302",
"Z  c #905503",
"A  c #925603",
"S  c #945703",
"D  c #965803",
"F  c #985903",
"G  c #9A5B03",
"H  c #9C5C03",
"J  c #9E5D03",
"K  c #A05E03",
"L  c #A25F03",
"P  c #A46003",
"I  c #A66203",
"U  c #A86303",
"Y  c #AA6403",
"T  c #AC6503",
"R  c #AE6603",
"E  c #B06703",
"W  c #B26903",
"Q  c #B36903",
"!  c #B56A03",
"~  c #B76B03",
"^  c #B96D03",
"/  c #BB6E03",
"(  c #BD6F03",
")  c #BF7003",
"_  c #C17103",
"`  c #C37203",
"'  c #C57403",
"]  c #C77503",
"[  c #C97603",
"{  c #CB7703",
"}  c #CD7803",
"|  c #CF7903",
" . c #D17B03",
".. c #D37C03",
"X. c #D57D03",
"o. c #D77E04",
"O. c #D98004",
"+. c #DB8104",
"@. c #DD8204",
"#. c #DF8304",
"$. c #E18404",
"%. c #E38504",
"&. c #E58704",
"*. c #E78804",
"=. c #E98904",
"-. c #EB8A04",
";. c #ED8B04",
":. c #EF8C04",
">. c #F18E04",
",. c #F38F04",
"<. c #F59004",
"1. c #F79104",
"2. c #F99204",
"3. c #FB9304",
"4. c #FC9405",
"5. c #FC9507",
"6. c #FC9609",
"7. c #FC970B",
"8. c #FC980D",
"9. c #FC990F",
"0. c #FC9911",
"q. c #FC9A13",
"w. c #FC9B15",
"e. c #FC9C17",
"r. c #FC9D19",
"t. c #FC9E1B",
"y. c #FC9E1D",
"u. c #FC9F1F",
"i. c #FCA021",
"p. c #FCA123",
"a. c #FCA225",
"s. c #FCA327",
"d. c #FCA329",
"f. c #FCA42A",
"g. c #FCA52C",
"h. c #FCA62E",
"j. c #FCA630",
"k. c #FCA732",
"l. c #FCA834",
"z. c #FCA936",
"x. c #FCAA38",
"c. c #FCAB3A",
"v. c #FCAB3C",
"b. c #FCAC3E",
"n. c #FCAD40",
"m. c #FCAE42",
"M. c #FCAF44",
"N. c #FCB046",
"B. c #FCB048",
"V. c #FCB14A",
"C. c #FCB24C",
"Z. c #FDB44E",
"A. c #FDB450",
"S. c #FDB552",
"D. c #FDB654",
"F. c #FDB756",
"G. c #FDB858",
"H. c #FDB95A",
"J. c #FDB95C",
"K. c #FDBA5E",
"L. c #FDBB60",
"P. c #FDBC62",
"I. c #FDBD64",
"U. c #FDBE66",
"Y. c #FDBE68",
"T. c #FDBF6A",
"R. c #FDC06C",
"E. c #FDC16E",
"W. c #FDC270",
"Q. c #FDC271",
"!. c #FDC373",
"~. c #FDC475",
"^. c #FDC577",
"/. c #FDC679",
"(. c #FDC67B",
"). c #FDC77D",
"_. c #FDC87F",
"`. c #FDC981",
"'. c #FDCA83",
"]. c #FDCB85",
"[. c #FDCB87",
"{. c #FDCC89",
"}. c #FDCD8B",
"|. c #FDCE8D",
" X c #FDCF8F",
".X c #FDD091",
"XX c #FDD193",
"oX c #FED295",
"OX c #FED397",
"+X c #FED499",
"@X c #FED49B",
"#X c #FED59D",
"$X c #FED69F",
"%X c #FED7A1",
"&X c #FED8A3",
"*X c #FED9A5",
"=X c #FED9A7",
"-X c #FEDAA9",
";X c #FEDBAB",
":X c #FEDCAD",
">X c #FEDDAF",
",X c #FEDEB1",
"<X c #FEDFB3",
"1X c #FEDFB5",
"2X c #FEE0B7",
"3X c #FEE1B8",
"4X c #FEE1BA",
"5X c #FEE2BC",
"6X c #FEE3BE",
"7X c #FEE4C0",
"8X c #FEE5C2",
"9X c #FEE6C4",
"0X c #FEE7C6",
"qX c #FEE7C8",
"wX c #FEE8CA",
"eX c #FEE9CC",
"rX c #FEEACE",
"tX c #FEEBD0",
"yX c #FEECD2",
"uX c #FEECD4",
"iX c #FEEED8",
"pX c #FEEFDA",
"aX c #FFF0DC",
"sX c #FFF1DE",
"dX c #FFF2E0",
"fX c #FFF3E2",
"gX c #FFF8EE",
"hX c #FFFAF2",
"jX c white",
/* pixels */
"&X`.K.T.(.OX=X|.S.x.H.A.i.q.v.U.L.!.%X].J.[.3X=XL.Z.%X>XI.l.V./.@X_.b.k.H.N.0.k.E.Q.}.<X.X'.XX/.T. X>XR.D.(.P.J.C.c.B.P.L.).{.r.",
"[.D.b.U..X%X*X/.x.f.G.s.-.'.iX>X].}.#X~.F.)..XR.F.(.%X'.F.U.$X:X[.P.T.R.(.9.U ^.fX-X7X5X).H.E.[.!._..XS.H.#X$X+XT.Y.'.XXXXoX].4.",
"3.*.-.e.p.6.0.+.R { >.J G [.XX8.=.>.4.X.#.y.q...%.0.0.;. .:.h.h.8.5.q.5.s.T N &X1Xw.4.7.;.X.w.x.i.d.h.6.<.9.a.t.*.9.V.B.d.u.8.N ",
"8.q.f.l.y.7.p.&.` r.s.F Z `.~.@.o.1.s.0.i.b.r.:.u.h.8.;.=.r.b.k.q.9.2.1.q.V B $XOX} T ;.7.>.f.z.w.=. .%.<.0.d.1.] 1.z.i.0.s.;.r ",
"5.6.8.+._ 2.d.:.1.A.s.F ` -X'.2.0.f.l.i.a.i.5.<.r.i.<.} _ 2.d.w.2.<.=.4.3.d z }.[.` ! :.>.%.7.y.7...' 3.q.9.2.' [ 4.7.;.7.t.&.p ",
">.1.3./ _ j.l.1.4.u.+.p H }.XXu.0.6.7.6.2.>.@.~ X.5. .I _ 8.q.*.| ( { 3.3.a v  X_...( ..*.<.0.6. .' 3.q.X.| ..} <.0.1.w.q.=.$.A ",
"A v j h K [ H h B J f . a c.i.C f d B I L m y r Y ] k x ^ ^ P F b l n G C . q v.t.b t Z _ ! L h 5 k Y N h R U v V W ` ' E J K u ",
"n q 3 z z 7 9 7 V J r w ^ y.o.a 2 0 M R P u 1 m / J f D G a V E B n v N z : M 0.#.k t U ~ B v e e z M b Z [ J q f W E h D T J j ",
"r.f.C.|.G.k.L.L.`.E.m.^.%XOXOX_.Q. X:X-X~.x.M.W.y.^ 2.F.M.S..X{.F.F.T.{.XX_.$X9X3XoX X@XT.I.+X$X XW.b.y.h.T.F.n.^.&XQ.N.`.I.N.C.",
"|.7X%X;X{. X%X+X#X@X{.#X(.F.OX1X-X:X-XOX/.T.(.].,.! [.iX_._.+X_.U._.OX|. X=X-X=X,X>X-X}.^.;XeX6X*X_.j.8.'.2X(.Q.[.#XW.G.^.T.Q.|.",
"+X>Xf.q.i.j.a.k.n.M.u.6. .O.c.b.r.2.&.,.8.6.5.:.k S 6XqXt.6.t.$.@.w.&.R $.i.4.,.0.8.3.;.w.b.d.7.:.} b U _.E.5.+._ 0.5. .,.9.p.h.",
"'.`.4.9.k.a.8.w.r.e.0.3.@.8.V.x.t.4.,.0.6.%.:.| 7 M @X|.<.8.y.=.w.f.Q U e.z.8.6.w.7.2.1.5.,.-.2.-.Q l ` [.E.t.;.;.G.l.&.3.9.e.e.",
"@XW.#.1.s.r.>.$.#.-.2.=.O.7.d.t.3.,.3.q.;.O.6.,.h n ^.|.4.O.o.;.l.g.-.i.G.k.#.` $.#.' X.@.) =.t.1.&.P R U.!.t.1.y.D.h.:.0.v.x.0.",
"Y.K.| o.2.-.X.+.;.,.2.2.6.a.e...R ) *.;.O.2.j.8.y i _.*X5.| { +.1.3.9.k.M.6.T ! *...~ o.&...p.v.5.<.l e n.S.#.-.7.i.e.&.;.i.t.3.",
"N.z.V j F N c C D H R T A V M s t D ! m s Z G z   6 N.v.^ J x M L Y A h M f p _ | J A Q / D ] ' m l   q H.d.P I R U B s a B U Y ",
"L.3.q < f h a r e k V p = - a c c / W e 3 r 3 7 4 b 2.-.Q i @ f P U y # 6 1 i ` U k z J H y V j , 8 $ T S.*.l a h 0 & 5 9 j Q b ",
"@Xf.e.V.I.E.F.D._.XX'.d.:.C.+X{.L.^.I.p.Z.'.F.K./.U.!.~.D.e.k.{.'.T.v.B.T.9.@.H.(.J._.#X(.D.~.B.b.Z.n.+X:XF.a.F.~.z.v.'.W.T._.=.",
"].K.*X3X$X:X<XwX0X.X].s.6.,X0X{.'.oX+X_.8XiX). X0X+XOX-X.X.X,X5X@X.X X*X&Xu.,.:XuXoX-XXX~.^.Y.(.2X$X-X9X-X{./.0X9X^.&XrX1XoXoXw.",
"z.d.n.s.5.y.m.m.<.~ X.k t x.a.+.w.q.i.e.g.e.] %.p.t.p.h.z.V.j.5.>.w.f.y.2.n L }.%Xs.<.! ( =.O.j.A.y.j.c.k.d.u.h.5.>.s.h.w.O.>.' ",
"e.X.o.>.,.5.p.q.&.+.-.x c (.Y.e.k.6.3.*.#.=.` ` 1.i.9.} @.6.2.&.X.>.0.>.) 8 z ].,Xg.1. .6.N.h.h.7.@.%.2.9.2.1.| ~ >.9.3.;.| 6.| ",
"O.T ..q.9.6.w.8.4.3.-.C U ^.U.i.z.r.7.:.,.r.3.0.m.G.s.[ $.6.,.&.X.@.2...( C U #X*Xe.4.-.;.9.w.o.) #.+.4.q.-.:.]  .u.2.o.#.$.0.W ",
"[ R 1.r.=.#.$.-.4.3.%.N G A.L.i.9.*.+.+.:.t.a.u.a.p.1.W X.q.<.@.{ @.p.2.5.) J #X&X9.;.{ Y #.e._  .d.a.c.f.1.6. .] <.@. .2.,.:.m ",
"a z ` P n m v Z I T I i J K.C.o.T C Z G F R ! B x V P v G ` V v P ] %._ ] g i E.F.Q B k C  .-.W ..1.| / K C J h y D I Y ..) T t ",
"# s C y a s w t a N B r I p.' z S n C P M n h 8 8 d J A n v 7 i E H g g v w K C.;.g e a j C ~ E Q N 8 > = = 9 1 6 n T ! I x 0 4 ",
"u.!.J.n.R.`.K.x.N.E.B.0.a.M.b.S.G.t.k.I.H.J.A.s.$.{ j.n.7.x.S.I.@XE.V.U.L.V.^.*XT.M.u.7.w.L. XK.m.i.| U =.p.C.G.K.).*X.XL.G.V.K.",
"$XsX'.=XpXsX<X=XrXrXOXT.b.S.=X1X|.].;X,XoX}.W.B.8.q.oX:X/.<X3X.X>X;X-X,X#X].]..X}.`.S.G.*XsX1XH.G.R.:.] #XtX*X,X%X>XqX XV.P.'.@X",
"!.(.8.C.Z.d.0.f.V.v.f.w.$.q.U.v.y.V.J.n.u.4.O...R ^ Y.+Xb.r.w.<.i.l.q.2.=.;.7.p.w.-.=.f.Z.l.$.W -.i.c j |.(.9.l.q.1.e.@.! $.8.5.",
"_.oXg.b.i.5.4.3.1.5.9.6.:.a.L.d.:.<.>.>.3.$.| <.K M /.,Xq...3.9.t.i.8.2.&.7.h.g.3.#.3.3.' | X.o.x.m.f 0 T.E.p.D.e.=.5.$.,.v.A.i.",
"U.%X0.@.=.4.4.2.3.6.>.&.<.f.n.6.O.#.%.=.&.~ ` 9.D H 5X<X7.=.5.r.3.3.p.r.<.w.f.s.4.:.q.-.) 0.l.f.S.k.y 8 (.'.i.x.7.3.7.:.9.p.s.,.",
"P.-X$.H @.2.%.:.6.3.@.+.8.u.6.$.%.2.1.,.%.] :.k.L I *X(.@.|  .;.@.o.7.,.+.4.r.0.<.4.r.4.8.D.S.p.<.%.9 r .X~.<.9.+.*.*.1.y.:.&.+.",
"C.G.M j W U m F U G F R { ^ A v F R U W Y J ^ $.g e r.-.c S J ! Q G / J Z ` [ ! R ) ~ I _ =.@.W l N > e (.K...Q N K G ~ ..D S Y ",
",.( 5 g v c z f w - : 4 7 < 2 9 s N M v s w d L e 2 [ P q v A F N C G 9 t b B V C G w & u N m e # 8 < z A.r.s 5 k I M d h 3 2 u ",
"}.!.D.F.N.D.S.v.h.g.s.@.R ,.F.L.Z.Z.z.d.c.V.I.}.V.y.F.n.i.G.G.y.t.N.e.,.A.v.r.h.z.j.&.@.b.G.g.2.#.0.m.!.&XZ.-.:.a.Z.x.a.M.d.6.<.",
"-X=X].'.*X-X%X:X>X5X3XA.z.dXjX8X#X X XOX&X:X6X<XE.x.J.|.&X8X@X!.@X+XU..XyXI.i.~.(.D.m.I.6X0X|.P.A..XaXpX,XoX.XI.!.4X2XoX#X(.Y.c.",
"8.1.&.d.F.l.p.m.v.k.g.Y Y OX%Xs.y.w.f.a.=.,.q.,.O.` %.d.N.m.f.m.Z.s.7.a.z.K l z.Z.0.2.3.v.C.f.1.1.m.P.m.d.c.b.q.n.|.U.d.6.=.2.U ",
"8.9.r.C.M.5.%.9.0.O._ 9 p ^.`.3.3.*.,.:.[ -.;.O.3.@.+.i.h.r.a.j.<.....6.k.B t F.`.g.5.,.d.f.5.;.9.t.0.7.1.4.4.5.d.c.t.5.;.+.*.M ",
"5.9.w.g.t.<.;.e.2.K T H | ;X'.4.5.2.w.r.8.p.,.:.s.-.q.U.z.2.t.8.W T ,.n.m.c w ~.+Xd.8.t.z.s.6.,.#.) [ @.-.8.6.3.7.7.4.3.O._ +.F ",
"1.9.i.s.9.2.4.8.:...i.@.K A.U.0.1.;.4.8.8.t.w.z.n.%.5.M.i.9.l.<.R ..z.h.{ * 6 R.oXi.&.O.*.;.O.E ! } $.;.w.u.=.o.&.,.1.2.#.o.=.Y ",
"A Q o.o.} } { R V G O.k 4 u.k./ F G ` { Q _ } $. .Z P ..{ | $.^ T *.4.I y < S Y.T.{ g x H P b k ' :.=.1.u.&.F n D W ) ] ~ Q { U ",
"2 y i s z M x 9 & < j 1 s y.o.9 t Z ! v = i t : 8 u j f 8 p V f t b s 4 v T o.u.>.r # d H I m b ^ U h h G B u y V K J A s 4 g S ",
"@.c.l.k.z.h.q.4.6.z.W.g.9.F.d.1.B.L.d.^ Q x.y.&.<.O.*.y.j.C.x.*.&.0.2.r.A.N.v.B.c.<.<.b.T.L.s.d.G.d.T m  .4.5.f.G.V.x.f.4.] %.j.",
"^.tXXX#X&X].R.K.^.>XtX@X`.>X$X<XfX>Xn.u. XfX XR.M.4.P.4X1XXXL.C.^.@X-X:X|./.}.(.'. X+X9X1X'.E.XX2X}.5.X.^.8X>X;X@X^.!.[./.D.(.8X",
"K.}.w.x.n.y.<.[ ,.g.s.6.e.S.P.W.!.b.8.b.XXT.8.-.L I H.'.f.1.7.j.M.M.K.D.j.M.S.s.d.f.w.j.a.p.b.n.z.s.H F ;XgX).c.t.9.y.l.p.7.z.Q.",
"v.^.s.Z.c.9. .E ;.q.;.O.%.y.d.i.y.4.,.p.m.y.2.-.V D R.OXj.t.k.V.v.i.i.w.3.7.0.8.2.o.| 3.5.r.a.8.<.o.t C 7X8Xi.3.2.1.6.1.O.%.q.g.",
"j.{.B.n.r.*./ O.p.r.7.q.p.c.p.4.4.<.O...:.4.6.<.N V ^.OXy.2.w.s.q.=.;.;. .[ >.y.1.-.f.a.<.e.p.6. .A r W |.I.*.2.3.<.2.:.=.w.f.i.",
"c.&Xm.9.:.=.*.0.8.<.g.j.t.r.9.4.4.>.} ) <.y.7.*.h A +X&X2.{ =.3.;.@.$.=.=.2.a.s.2.3.f.9.q.N.g.-.[ / P | F.l.;.*.` @.7.e.u.j.d.7.",
"H.].,.{ / ! _ ) U _ @.! ! } ( ( ( F v ! q.r...R 9 n (.T.' I ) [ Q ~ R ! #.-.&.~ B F ~ ^ *.8.] G ] ;.W ( l.i.:./ N | %.} { [ ) Q ",
"y.-.m b c l s 3 6 g i 2 c j $ = , o $ C ! C 4 @   s u.O.w > g Z i g 8 q Z a 2 # 1 S R D B s @ - Z T t h | ^ Y N f D a = = % > t ",
"F.m.7.O.X.1.%.) -.5.>.&.3.;.O.4.0.;.,.l.r.] S J ) t.L.p.....j.M.3.8.&.2.u.Q M P w.!.P.j.r.&.| 0.V.s._ %.v.C.v.2.@.1.&.@.,.O.;.6.",
"'.+X[.F.I.T.c.C.>X2X,X!.x.&X0X+X-XoX'.-X&XW.L.|.+X$X;X%X|.OX4X%XY.P.(.OX/.9.<.'.hXsX+XQ.Q.P.W.<X0X}.V.R.>X0X@XH.E.$X#XoXXX'.3X'.",
"9.p.V.C.H.g.6.x.Y.V.p.^ W oX].:.k.b.r.x.C.m.v.k.v.W.].!.D.C.b.a.-.X.r.h.i. ...2XaXS.y.t.p.4.5.V.z.<.3.a.D.Z.w.,.g.F.v.8.6.c.S.+.",
"e.t.m.u.2.4.p.g.t.&.L 8 b ].(.1.M.g.@.,.t.t.>.' q.G.v.t.6.8.7.<.%.O.3.i.j.] ' 1XoX&.o.<.6.=.2.k.:.| 5.i.x.y.*.&.e.l.w.@.3.z.4.Z ",
"g.>.:.} ] 6.7...o.+.+.~ #.3X$Xr.a.5.=.6.g.r.&.>.n.C.,.+.%.&.<.6.w.8.t.B.g.A G /.W.-.#.1.q.=.#.;.%.i.V.v.d.0.4.8.x.Z.e.| @.e.w.E ",
"8.^ ~ @.=.1.%.( +.<.t. .` (.C.} @.#.2.y.p.;.&.4.<.1.;.;.>.*.7.w.8.4.y.h.:.l b v.K.4.$.9.j.6.*.3.p.V.x.e.8.9.<.*.t.p.+.R ] 7.s.W ",
"{ Z Q -.{ { ,.,.6.u.p.N q r.3._ #.] o.;.%.X.3.;.R ^ [ ~ ' *.8.>.} } =.-.' v A l.H.2.O.7.0.../ ;.i.y.X.K Q ` ^  .4.&.U ( 1.y.8.B ",
"= , N N x H Q G a x F 1 7 6.-.Q ~ B f n D J W V r s a e v N n h 7 < i t 9 s K :.o.b j b q @ O b I V 8 X 9 i d G L r < h v h 0 o ",
"D o.-.@.d.i.6.&.W $.5.[ -.E.H.y.f.0.` O.=.%.&.X.Q Y [ 1.t.:.@.] Y Y o.{ @.i.i.p.w.4.<._ v B { v.u.+.S p O.7.&.%.' K X.2. .R ! ] ",
"].:XK.!.,X'.P.).#X0X%XC.].aX3XXX,X*XE.{.oX.X/.B.=. .A.oX%XoX].L.T.|.%X=X;X=X~.E.#X9X2XY.l.F.=XaX|.Y.t.>.:X7XY.Y.W.'.5X7X$X`.=X7X",
" X&Xx.c.P.z.2.N.Y.D.j.g.)._.m.M.K.F.c.C.T.T.u.) s n T.>X^.A.r.>.g.I.E.~.m.g.p.a.C.P.F.x.l.F.].].N.v.' A P.~.x.P.R.Q.I.B.c.v.~.}.",
"J.%Xq.6.A.p.&.c.v.,. .2.z.t.9.w.r.9.<.3.0.:.Y H x Y &XoXr.1.' / w.G.n.r.%.=.1.0.h.i.1.>.q.l.N.V.f.>.6 * g.P.k.n.x.f.<._ ( -.u.i.",
"f.].*.,.Z.x.r.B.l.&./ ;.t.q.e.;.=.;.$.:.2.^ F *.} $.@XJ.2.1.o.8.G.Y.y.O.X.=.,.e.0.*.#.>.3.3.q.g.t._ = f ].,Xm.y.e.9.[ C R 2.,.-.",
"a.L.=.>.d.g.w.t.=._ #.h.v.0.o.Y +.5.>.q.q.[ *.F.>. .Q.R.m.e.<.B.K.M.1.X.,.<.8.i.O.] 6.t.4.;.2.5.2.` 7 Z -X,X9.@.-.5.` I 9.G.p.6.",
"c.G.w.5.2.-.{ Q v B +.w.8.} A Z o.>.$.*.} U [ 6.n t d.U.k.>.,.a.4.;.} { 3.4.:.} F | 2._ ! ^ ^ ..$.H 0 ] 3XY.W Q { O.U I y.V.4.X.",
"i.e.*.( R E C f < e D N q - e v c l 9 = @ + = y $ > =.*.m u p p e k k b A s ; , z P a > l c z E M O ; U 9.H 1 y s n a 2 c B d s "
};
