/* XPM */
static char *_bf1e9090e4c4d7cfcdfa59c77dc7c02[] = {
/* columns rows colors chars-per-pixel */
"64 64 212 2 ",
"   c black",
".  c #020202",
"X  c #040404",
"o  c #060606",
"O  c #070707",
"+  c #090909",
"@  c #0B0B0B",
"#  c gray5",
"$  c gray6",
"%  c #101010",
"&  c gray7",
"*  c gray8",
"=  c #161616",
"-  c gray9",
";  c #191919",
":  c #1B1B1B",
">  c gray11",
",  c #1E1E1E",
"<  c #202020",
"1  c #222222",
"2  c #232323",
"3  c #252525",
"4  c gray15",
"5  c #282828",
"6  c #2A2A2A",
"7  c gray17",
"8  c #2D2D2D",
"9  c gray18",
"0  c gray19",
"q  c #323232",
"w  c gray20",
"e  c #353535",
"r  c gray21",
"t  c gray22",
"y  c #393939",
"u  c gray23",
"i  c #3C3C3C",
"p  c #3E3E3E",
"a  c #3F3F3F",
"s  c #414141",
"d  c gray26",
"f  c #434343",
"g  c gray27",
"h  c #464646",
"j  c #484848",
"k  c #494949",
"l  c gray29",
"z  c #4C4C4C",
"x  c gray30",
"c  c #4E4E4E",
"v  c #505050",
"b  c #515151",
"n  c gray32",
"m  c gray33",
"M  c #555555",
"N  c #565656",
"B  c gray34",
"V  c gray35",
"C  c #5A5A5A",
"Z  c #5B5B5B",
"A  c gray36",
"S  c gray37",
"D  c #5F5F5F",
"F  c #606060",
"G  c gray38",
"H  c #626262",
"J  c gray39",
"K  c #656565",
"L  c gray40",
"P  c #676767",
"I  c #686868",
"U  c DimGray",
"Y  c #6A6A6A",
"T  c gray42",
"R  c #6C6C6C",
"E  c #6D6D6D",
"W  c gray43",
"Q  c #6F6F6F",
"!  c gray44",
"~  c #717171",
"^  c #727272",
"/  c gray45",
"(  c #747474",
")  c gray46",
"_  c #767676",
"`  c #777777",
"'  c gray47",
"]  c #797979",
"[  c gray48",
"{  c #7B7B7B",
"}  c #7C7C7C",
"|  c gray49",
" . c #7E7E7E",
".. c gray50",
"X. c #808080",
"o. c #818181",
"O. c gray51",
"+. c #838383",
"@. c #848484",
"#. c gray52",
"$. c #868686",
"%. c gray53",
"&. c #888888",
"*. c #898989",
"=. c gray54",
"-. c #8B8B8B",
";. c gray55",
":. c #8D8D8D",
">. c #8E8E8E",
",. c gray56",
"<. c #909090",
"1. c gray57",
"2. c #929292",
"3. c #939393",
"4. c gray58",
"5. c #959595",
"6. c gray59",
"7. c #979797",
"8. c #989898",
"9. c gray60",
"0. c #9A9A9A",
"q. c #9B9B9B",
"w. c gray61",
"e. c #9D9D9D",
"r. c gray62",
"t. c #9F9F9F",
"y. c #A0A0A0",
"u. c gray63",
"i. c #A2A2A2",
"p. c gray64",
"a. c #A4A4A4",
"s. c #A5A5A5",
"d. c gray65",
"f. c #A7A7A7",
"g. c gray66",
"h. c #A9A9A9",
"j. c #AAAAAA",
"k. c gray67",
"l. c #ACACAC",
"z. c gray68",
"x. c #AEAEAE",
"c. c #AFAFAF",
"v. c gray69",
"b. c #B1B1B1",
"n. c #B2B2B2",
"m. c gray70",
"M. c #B4B4B4",
"N. c gray71",
"B. c #B6B6B6",
"V. c #B7B7B7",
"C. c gray72",
"Z. c #B9B9B9",
"A. c gray73",
"S. c #BBBBBB",
"D. c #BCBCBC",
"F. c gray74",
"G. c gray",
"H. c gray75",
"J. c #C0C0C0",
"K. c #C1C1C1",
"L. c gray76",
"P. c #C3C3C3",
"I. c gray77",
"U. c #C5C5C5",
"Y. c #C6C6C6",
"T. c gray78",
"R. c #C8C8C8",
"E. c gray79",
"W. c #CACACA",
"Q. c #CBCBCB",
"!. c gray80",
"~. c #CDCDCD",
"^. c #CECECE",
"/. c gray81",
"(. c #D0D0D0",
"). c gray82",
"_. c #D2D2D2",
"`. c LightGray",
"'. c gray83",
"]. c #D5D5D5",
"[. c gray84",
"{. c #D7D7D7",
"}. c #D8D8D8",
"|. c gray85",
" X c #DADADA",
".X c gray86",
"XX c gainsboro",
"oX c #DDDDDD",
"OX c gray87",
"+X c #DFDFDF",
"@X c gray88",
"#X c #E1E1E1",
"$X c #E2E2E2",
"%X c gray89",
"&X c #E4E4E4",
"*X c gray90",
"=X c #E6E6E6",
"-X c #E7E7E7",
";X c gray91",
":X c #E9E9E9",
">X c #EAEAEA",
",X c gray92",
"<X c #ECECEC",
"1X c gray93",
"2X c #EEEEEE",
"3X c #EFEFEF",
"4X c gray94",
"5X c #F1F1F1",
"6X c gray95",
"7X c #F3F3F3",
"8X c #F4F4F4",
"9X c gray96",
/* pixels */
"9X9X7X9X9X9X9X9X,X).3X;Xm.a.].9X9X9X9X9X5X9X9X9X8X;X9X9X9X!.&X9X9X9X}.Q.5X+Xy.R.9X9X9X9X9X9X9X9X9X9X9X9X<X9X9X6X*X).#X9X8X9X9Xl.",
"9X<X].9X9X9X9X9X).J.2XS.X.9X9X9X9X9X9X9X2X9X9X9X2X9X9X9X2X9X9X9X9X9X9X9X9Xt.# 9X9X9X9X9X9X5X9X9X9X9X9X:X4X9X9X9X9X9X9X9X9X9X9X2.",
"1.{  .g.V.6.y.E > M @.    9X9Xe.} #.2.K ! n.a.F ) u.u.X.Z O.Y.Y.q.4.a.6.A.:   9X9Xd.3.q.o.L s./.B.G.Y.8.*.e.V.x.] u.%X%XH.m.w.  ",
"q.p.J.!.v.q.C.] k k.A.    9X9XE L :.D.u.B.}.l.@.n.T.w.o.| z.|.Q.a.r.:.;.a.    9X9XB - X.0.#.H.(.d. .S ) =.i.F.-.b -.^.M.p.S...  ",
"6.8.r.T f ,.H.@.-.;XD.  j 9X9X:.u.J.Q.M.Z.B.5.=.l.M.=.B f :.H.d.>.*.| 3.1.    9X9Xj 7 @.$.) q.b.8.G z 1.a.r.:.k b 4.q.o.q.l.]   ",
"#.;.,.u f R.!.:.1.M.T     9X9Xm.u.8.q.6.:.$.W 0 H 4.S @ f q.a.[ V a N 2.<.    9X9XF u S [ *.y.7.A x <.p.H V S B -.p.;.f.s.{ (   ",
"          b               _.B.        + o       - z     q e X                 ].x.      g 8 .       -     < #     3 j z 3       ",
"                        e c.P         > +       i             1               i.~     & e                 n       5 ,     -     ",
"j.L.&X9X3XW.9X9X9X9XXX9X9X9X9X9X9X9X9X9X9X(.oX9Xv.w <.1X+X>X9X9X2X1X9X9X9X9X9X9X9X9X9X9X9X9X9X9X9X9X|.v.T.9X2X|.9X9X9X@X9X9X@X=X",
"9X9X9X9X9X9X9X9X9X9X9X9X9X2X9X9X9X9X9X9X9X9X9X9X*.6 9X9X9X9X9X9X9X9X9X9X9X9X9X9X9X9X9X9X9X9X9X9X9X9XR.w.9X9X9X9X9X9X9X3X9X9X9X9X",
"9X9XL.a.V.R.C.W. XoXm.7.Z Y ].[.k.:.] $.e.9.5.@.    9X9Xz.6.z./ E f.' < ~ V.2.*.i.w.,.X.a.}.G.0.O.M   % 9X9X6.R d u.3.D %.t.B.T.",
"9X9X3.y.Q.S.q.s.h.g.y.1.E w.$X).z.2.&.t.0._ O.Z     9X9X=.e.v.| d.J.7 $ j.(.q.7.f.0.:.:.4.$. .>. .8   f 9X9Xl.o.+.3X!._ ,.t.g.h.",
"9X9XQ -.F.k.@.~ ! ..,.| P 9.H.l.1.&.1.a.o.P 8.&.    9X9X2.P P O.~.I. .M.3XQ.~ k ~ ! x L Q s { z.;.] + , 9X9Xz.:.v.1XY.O.i.[.(.u.",
"9X7XA K :...J E o.$.:.:.9.S.f.D ; f ] o.P :.T.r.    9X9X3.V M T ;.<.u.Q.OX0.; 8 } H w P ' G B.].4.=.     X>X^ ..0.B.h.` O.V.x.,.",
"+X/.                , ;             7               #X].e       X -           f A     5 t   x k         4XH.o # : $         * ; ",
"9X<.                              t 4               >. .5       + %           h *                     ; :X[                 6   ",
"9XH.j.%X9X9X1X1X9X9X9XD.O.*X9X9X9X9X9XV.;X9X1X7X9X9X9X9X,Xf.E.9X9X9X].$X9Xt.R 4X9X6X9X9X9X<X9X@X{.-X|.9X9X2XZ.<X9X^.].9X9X9X9X} ",
"9X6X9X9X9X9X9X9X9X9X9XS.7.9X9X9X9X9X9X9X9X9X9X9X9X9X9X9X9X9X9X9X9X9X9X9X9XM.%.9X9X9X9X9X9X9X9X9X9X9X9X9X9X9X9X9X9X9X9X9X9X9X9Xf.",
"(.H. XD.5.b.oXXX=.0 G     ).A.T d.s.M.h.L.g.z ( C.x.C.I./.*XR.6.@.g.H.n.;.    9X9XS.=.9 u { P T.:Xv.R.`.E.H.N.Y.6.@.F.T.s.I #.l ",
"h.J P #.&.6.B.i.] E  .    9X9Xg.W.8.>.] !  .k j -.B.t.B W 6.>._ K @.u.@.a     9X9XP.;.A 7.@XT.U.9.Q ) >.t.:.:.Z w $.e.2.X.C 7.A ",
"Y : G a.e.6.s.w.1.,...  # 9X9XN.(.z.q.@.&.j.2.i..X4XF.b ^ 6.%.` G W :.S u   % 9X9Xh.2.o.O.t.d.L d ! R 3.a...@.c F M.:.P Q ~ u.4 ",
"b , :.j.| ! !  .2.,.)     :X9XB.r.{ T T O.c.C.m.Z.C.-.1 G s.=.E M W V.>.3.s   9X9Xy.o.N - Q g.f S D.A._.H.:.9.A v =.! S <.*.@.  ",
"    k O         @ ; $     6X*XP ;         < 8       O     g     + c _ g z     9X1X5       D  .3 H ;.A r .           + ; F s ;   ",
"                        @ V.x         +                         2             =XX.          0 2 6                   ; 6 @       ",
"b.9X6X X9X9X7X).@X9X#Xi.S.+X}.<X3Xx.W.9X5X6X;XS.^ M W. Xq._.>X9X9X9X&X9X9X$X9X9X9XOXM.0.g.9X9X8XXXN.Z & [ C.*X5X7X9X9X9X8X2X%X8X",
"9X9X9X9X9X9X9X9X9X9X9X9X{.>X9X9X9X9X9X9X9X9X9X#Xw.i.9X9X9X9X9X9X9X9X9X9X9X9X9X9X9X9X>X3X9X9X9X6X3X9X+.c 9X9X9X9X9X9X9X9X&X9X9X9X",
"9X9Xe.*X-XD.i.K.$X{.J.f.~ a.9X].n.*X6X Xm.2.P D , r 9X9X{.l.f.=.V.Q.a.>.{ X.0.C.s...| H.=X!./ 3 ..N.    9X9Xe.W.p.:.h.! 9 ~ w.5.",
"9X9XI.}.B.3.2.<.=.3.t.9.O.A.9XH.+.&.+.@.<.^ A =..   9X9Xs.F ,.r.v.M.q.>.` 9.I.P.<.! ,.2.j C H P (. X    9X9XC.<Xj. .4.) $.'.>XN.",
"9X9Xp.Q { 2.3.,.2.7.@.` =.K. X9.I ~ ) } ] q g r.    9X9X0.{ 5.l.<.2.V.h.=.d.L.D.2.+.i. .a p.!.K.>XE.    9X9XN.(.8.,.q.+.r.V.F.%.",
"9X9X^   W >.` O.6.,.! E w.n.8./ ( :.;.&._ x @.E.X + 9X9XW Z D X.Q P q.&.T 2.l.y.=.2.z.2.q.1X>XB.=.)     9X9X=.e.T [ } =.b.O.] Y ",
"*X4X    4 $     *     > b e       , $ 1 =   w /     z. .      0 7   i     g b 7 > d q # f [ Q 4         9X8XF 5       9 D     * ",
"%.p                                           X     b +                                                 ;Xl.      #             ",
"9X9X<X1X@X1X<X[.Y.P.G.Q 1 =.2X9X-X-X/.H.'.%X9X9X&Xc.2X XN.3X3Xb.x.@Xk.%.;X[.l.T.(.E.` E }.3XP.:.~ u..X9X9X=X .+.A.=X(.Z.oXJ.7.=.",
"9X9X9X9X9X9X9X9X9X9X9X;X/.9X9X9X9X9X9X9X9X9X9X9X9X(.6X9X9X9X9X9X9X9X9X9X9X9XB.9X9X<XXX9X9X9X9X9X:X9X9X9X9X9X9X9X9X9X9X9X9X9X9X`.",
"w.;.' G.2X!.V.XX].W.U.- % 9X9XF.v.f.K.C.} $.a.%.U k ( J.@XXXL.XX-XS.9.D./.    ~.-Xu.,.,.].=XJ.=.-..X9X XH.].{.a. X9X9XG.8.| :.* ",
"w.y.l.*X+X6.) t.i.P h     9X9X,.,.[ $.O.b  .o.P 1.W U V.U.k.C.R.&.S F 8.R.    <X9XL.5.*.G.K.3.o.t.x.p.0.;.2.4.5.H.`.x.6.X.R ]   ",
"6.t.f.L.x.&.X.j.>.  ;   A 9X9X4.5.>.d.l.w.B.*.O.F. .s.9X(.:.x.q.4 - $.|.XX    9X9XH.r.x.(.A.8.%.^ s b W  .w.8.2.9.9.2.<.Y h R   ",
"-.r.B.A.e.,.2.w.O.G B.W   >X9Xu.:.O.3.e.e.z.a./..X` 4.+XB.t.!.=.> J /.Y.M     9X9XN.' Y [ o.P < 8 B / o.g.n. .P ` *.:.>.^ L { = ",
"  5 L P B B m >     I     N.W.u     j m 6 d M / A   X S M C ^ r ; [ 2.$       9X9Xm       O     k @.{ :.m.'       4 d x 0 5 m # ",
"                          b.P       7                                     : L M.@.        @     e &               .             ",
"Q `.!.R./.Y.a.2.9.^.9XU.t.3XG.-.$X9XD.e 7 _.v.` =.I ] b.E.&X).{ ' u.:.l.;X@X].@X].=.&.[.9X9XF.H.4XH.;   S 2.3.H.2X*X(.K.1.x ) R.",
"9X9X9X9X9X9X9X6X9X9X9X9X9X9X9X9X9X9X|.b.9X9X9X9XoX2.9X9X9X9X9X=X9X9X9X9X9X9X9X9X9X9X9X9X9X9X9X9X9X9X6.L 9X9X9X9X9X9X9X9X9X<X9X9X",
"7X9Xf._. Xn.=.b &.P.S.8.h.,X9X9X9X}.e.{.9X9Xe. .o + 5X9XH.=.0.R.oX+X6X<XR.oX>XS.F.K.d.R.C.C.}.|.(.F.    9X9X9X'.z.u.n.~.V.0.(.9X",
"{.9XS.-X).r.S < O.p.o.I ` n.H.V.b.2.&.C..Xb.:.|     9X9XR.x.!.$X{.M.M.g.<.0.y.w.:.L A >.5.z.A.w.=.L     9X9XB.,.>.;.7.:.P ) a.P.",
"T.9X@X|.l.{ y I C.k.0.a.C._.V.2.2.=.U H +.2.7.=.    9X9Xv.<.f.S.a.} X.O.S n %.x.=.X.J.A.&.g.B.9.A     3 9X9X] :.2.=.,.@.} f.K.M.",
"].9X.Xt.O.{ { y.q.=.K.R.x.k.r.2.2.@.V d *.c.q.]     9X9X:.M { <.o.W ^ | | ,.Z.F.:.<.L.r.a.@XL.X.b y X A 2X^...] h ! 0.g.m.R.H.q.",
"6X9X%.m y 6 f a % f Q 7 6 M p p u     8 d.h.H >     9X9Xj + d n 5 q > 6 !  .` q     0 r ] e.c   x O.5 i !.B.@.u   Z / V M v p 5 ",
"v.X.                                    0           n.P                             ,             -     A r &                   ",
"2X Xq.U J ;.( p  .5.@.] <.O.T 2.u.O.%.!.k.c     s c.9XC.H F R.oX1.q.] :.M.5   o f.9X9XR.k.' Z p.$XA.f ( [.*X].>.Q ;.` Q %.I o.6.",
"9X9X9X1X9X9X`.*X9X9X9X9X`.9X9X9X9X9X9X9X9X9X8X9X9X9X9X9X9X9X9X9X9X9X9X9X9Xy.&.9X9X9X9X9X9X9X9X9X9X9X&X9X9X9X9X6X9X9X9X9X9X9X9X9X",
"r.C.&X*X6XP.9.).9X%XV.e 3 9X9Xo.Q.|.k.).=XoX{.W.].9X9X9X<X&X|.A. .L z.U.B.S S 9X9X<Xc.x.V.1.5.*X/.*.>.S.1X;Xd.$.I.2X[.e.7.).>XT ",
"j.c..Xb.,.2.C.I.x.' X     9X9X=.XXI.! %.x.x.@.x a.5X'.z.6.w.0.-./ I <.B.E.z l 9X9X' L &.8.[ :.Q.O.Z 6.B.).c.{ ] h.!.a.W 1.~.3.  ",
"L.@.+.B c 7.9.H P T T 0 ! 9X9Xk.C.7.} 9.L.k.] $. X&X*.T ) ' *.6.f.e.c.@XI.    9X9X .~ :.p. .! o.` B.%X'.H.i.2.w.(.-Xj.Z Q h.g.1 ",
"w.r 9 W } -.) u U =.x.A h 9X&XV W ! ,.n.V.o.' 2.=.:.O.O.@.' 9.d.e.2.v.T.O.    ].8X2./ y.R.6.{ 2.C.%X).h.q.e.=.{ l.C.Y > x 0.D.2 ",
"N   5 X.n M *.%.9.n.V.    z.>.f ~ b P o.) J ,.O.> w b 0 l [ w.@.C V } ..x     !.5X>.P 0.u.D r o.B.v.J   6 h r S 2.` & i -.b.w.  ",
"            6             6...5 9           3                                 +.P               #                               ",
"  I  .Q H.V.9.] 5 ( 6.v ..9X5Xn.L.a.h U | ) ' L 5 ; n :.x.O.E z * - P n W B.B.C.h.2.=.d     M [.m.R     I q.' ) l   H ,.S > 8 c ",
"9X9X8X9X9X9X9X9X9X9X9X*X9X9X9X9X9X9X9X9X9X9X9X@X{ F ;X9X9X9X9X9X9X9X9X9X9X9X9X9X9X9X9X9X~.1X9X9X9X9Xl.@.9X9X9X9X9X9X9X9X9X9X9X9X",
"9X9X(.].9X~.:.@X9X<XR.L.9X9XXX+X8X2X_.=X9X9Xb.p     9X9X9X:Xl.#.K.9X9X9XXXP.V.C.*X9X2X).!.1X9X9X+X[.z   9X9X).9X9X9X9X@X`.].9X9X",
"6X9Xp.7.;XC.' `.].&.A <.(.x.w.d.k.y.-.1.y.O.*     - 9X9Xl.;.k r s.3X|.l.) } -.u.I.V.:.$.s.!.@X$XL.@.    K.9XQ. X(.H.*.f p ..b.m.",
"J.9X[ *.-X(.z.$X!.' t O.x.a.g.o.} X./ +.,.e   { B ^ 9X6X:.-.P r.2X9Xb.Y K { &.f.u.] Q #.2.>.a.P.x.f     9X9X.Xv.f.y.n   : :.=. .",
"Z.9X} #.G.P.d.x.| d ! T.[.p.P - R 3.$.a.a.b [ 1X@.A 9X9X Xg.-.$X8XOX-.K #.=.w.B.I x 7.x.2.o.:.5.<.g     9X9Xt.Q X.4.g + r.5XC.9.",
"_.2Xd.7.:.o.n 5     T d.e.M     K @./ { V % b 7.    G.9XR.+.#.S.3...B m <.3.O.N   A ;.s 8 r r F ^     v 9X9X3 5 n I * # v.%X2.H ",
"N.h.[ i ; 1                                         | }                           O           <       % t.                      "
};
