/* XPM */
static char *a0b6bede029e433a87827c749c142a79[] = {
/* columns rows colors chars-per-pixel */
"64 64 131 2 ",
"   c #131312",
".  c #1B1A17",
"X  c #1E1C1A",
"o  c #211F1D",
"O  c #23211F",
"+  c #252422",
"@  c #292623",
"#  c #272824",
"$  c #2B2925",
"%  c #2F2E2C",
"&  c #302D2C",
"*  c #35332E",
"=  c #38352F",
"-  c #363430",
";  c #3A3632",
":  c #3C3933",
">  c #413C35",
",  c #423F3A",
"<  c #47433D",
"1  c #48453F",
"2  c #4D4945",
"3  c #4A494A",
"4  c #514C47",
"5  c #57534F",
"6  c #5A544B",
"7  c #555352",
"8  c #5A5652",
"9  c #5C5A55",
"0  c #5C5A59",
"q  c #60594F",
"w  c #645E55",
"e  c #666156",
"r  c #696356",
"t  c #666259",
"y  c #6B655B",
"u  c #6E695D",
"i  c #70665C",
"p  c #736B5E",
"a  c #796D5E",
"s  c #6A6560",
"d  c #6F6960",
"f  c #736C62",
"g  c #7B6F61",
"h  c #777161",
"j  c #7A7264",
"k  c #75736A",
"l  c #7A756B",
"z  c #7E796E",
"x  c #7A7770",
"c  c #7E7A71",
"v  c #817B6F",
"b  c #817C71",
"n  c #868375",
"m  c #8A8275",
"M  c #8E8579",
"N  c #94877A",
"B  c #948B7B",
"V  c #9B8D7D",
"C  c #97907F",
"Z  c #99927F",
"A  c #A3927E",
"S  c #968B80",
"D  c #9B8D80",
"F  c #979182",
"G  c #9B9384",
"H  c #9F9887",
"J  c #9E9789",
"K  c #9F988A",
"L  c #A29684",
"P  c #A29986",
"I  c #A99B87",
"U  c #A69788",
"Y  c #A59B8A",
"T  c #AB9D8B",
"R  c #ACA28D",
"E  c #B2A48E",
"W  c #BAA68E",
"Q  c #B4AA8F",
"!  c #ADA391",
"~  c #AFA998",
"^  c #B2A693",
"/  c #BAA791",
"(  c #B5AA94",
")  c #BBAC95",
"_  c #B4A79A",
"`  c #B5AC9A",
"'  c #BBAD9A",
"]  c #BDB196",
"[  c #B6B09D",
"{  c #BDB29C",
"}  c #B7AFA1",
"|  c #BCAFA1",
" . c #B7B1A1",
".. c #BDB3A1",
"X. c #BFB8A5",
"o. c #C1AE96",
"O. c #C1AF9B",
"+. c #C3B196",
"@. c #CBB397",
"#. c #C3B49C",
"$. c #C9B69D",
"%. c #C6B99E",
"&. c #CABA9E",
"*. c #D1BD9E",
"=. c #C3B6A2",
"-. c #C9B7A2",
";. c #C5BAA3",
":. c #CBBCA3",
">. c #C5BBA9",
",. c #CBBDA9",
"<. c #D1BEA4",
"1. c #D0BFAA",
"2. c #CDC09F",
"3. c #D0C09F",
"4. c #CEC1A5",
"5. c #CDC1AB",
"6. c #D2C2A5",
"7. c #D3C4AB",
"8. c #D9C5AB",
"9. c #D6C9AE",
"0. c #DACAAE",
"q. c #CDC3B0",
"w. c #D2C5B0",
"e. c #D5C9B2",
"r. c #DBCDB2",
"t. c #D9CFB9",
"y. c #DED0B6",
"u. c #DDD1BC",
"i. c #E1CEB2",
"p. c #E2D1B4",
"a. c #E3D4B9",
/* pixels */
"0 0 0 0 0 0 8 0 0 0 9 9 9 9 0 0 0 0 0 w 7 3 9 0 0 0 0 0 9 0 0 9 9 0 0 0 0 0 0 0 9 8 3 7 0 0 0 0 0 0 9 0 0 0 0 0 0 9 0 0 0 0 8 0 ",
"w { ! ^ E T ( ) / E R R ( Y L Y T U R ) 6 X L ) ^ ^ T ! ] o.W R R ( T U Y R T T { N X w =.^ / T R ) +.) E E ( E T P ! T T ( ! k ",
"u 8.:.6.6.$.0.0.:.$.&.4.7.$.{ =.$.#.:.a.u # E 7.6.8.-.6.0.8.$.%.5.4.:.$.$.=.#.$.p.( $ u r.6.9.1.6.0.0.1.%.6.,.7.-.$.;.-.$.8.1.m ",
"r 9.:.6.%.) @.&.%.) +.+.-.=.) -.#.o.#.r.r + R 7.5.:.o.#.&.&.{ o.+.%.:.{ #.%.+.#.8.T # r r.7.5.%.+.&.&.%.O.@.$.:.;.O.-.=.#.<.-.b ",
"t 1.7.%.#.&.6.&.%.) / =.:.#.] ;.{ ` =.r.r O Y r.4.%.&.6.3.2.#./ #.,.-.' #.=.' ' 9.R + w e.9.&.%.4.6.3.&.) o.:.,.#.%.;.=.' ,.-.v ",
"r :.#.%.%.;.6.:.<.-.#.#.=.-.` :.' ` ' r.u O I -.%.%.%.4.6.*.<.#.{ %.:.' ;.;.' ' 9.R # e 7.%.:.;.:.6.<.<.-.{ =.:.=.#.,.=.) -.;.n ",
"t ;.;.%.#.+.4.%.o.#.=.$.O.-.%.5.' ] %.8.t O Y :.-.:.] :.:.#.@.=.-.$.-.%.,.=.` $.8.P O w 5.-.:.#.$.6.&.#.%.;.:.$.-.:.1.` ' 6.%.z ",
"r =.#.{ { #.:.;.;.$./ #.) ) %.' ` =.;.0.e # P ;.#.{ { -.:.;.:.O.' ' / %.=.` ..;.0.I $ e 5.#.%...%.:.4.,.%.o.$.) #.;.` { >.7.%.v ",
"u 4.;.5.;.' -.;.;.#.@.#.o.%.6.#.=.;.` 5.y # R :.,.5.{ =.-.>.%.#.$.o.$.6.-.{ :...>.Y $ r 9.;.5.;.#.:.:.;.$.$.$.O.6.6.#.;.4...} n ",
"r 7.=.{ =.' =.( ' #.;.1.#.{ { -.=...` >.9 + R 4.{ ..{ #.' ` #.&.6.;.#.%.;.=.=.{ >.F @ y 9.=.;.=.=.=.` { =.1.1.=.#.=.-.;.=...` l ",
"t 9.;.;.{ { %.) #.%.;.;...' ` { =.X...u.r O R 7.;.;.{ 2.#.{ %.;.:.=.' | | =.>...t.! # e r.5.;.#.%.%.{ %.-.:.,.=.{ | =.>.X.q.,.c ",
"y 5.=.+.{ :.%.{ :.:.] { | =.` ' #.' ..w.w # R ;.%.{ ;.%.#.:.4.#.#.| =...` #.#.' 5.P O y 8.;.#.;.:.%.;.6.:.#.O.=.=.{ | =.` =.X.l ",
"p 4.#.{ { %.;...;.#.=.=.) ( =.%.$.#.` >.9 $ E 4.#.%.#.;.=.;.%...=.O.^ O.;.$.%.` X.G @ p 8.=.%.#.-.:.;.;.;.;.;.) { -.-.-.=.} ` l ",
"p 9.;.6.#.+.#.:.) ] ` ..' ) ) -.:.=.` >.e $ / 5.4.-.#.#.:.%.{ ] ..=.' ) $.,.;...>.J @ p r.4.<.$.%.-.:.%.{ ..=.{ ) #.,.1.=.=.` c ",
"p 0.;.:.:.#.:.6.:.[ ' =.| _ ) | } | ;.5.w @ ( 6.=.<.#.%.7.4.{ ` { ..' ) ' | | =.q.L # f r.:.,.:.+.4.7.:.` ' =.=.) ) =.| X.,...b ",
"f 8.] #.&.%.,.%.-.) ' o.( ' O.-.%.#.` 7.w $ ( :.#.*.&.,.-.;.#.{ #.) ' ' >.-.$.' 5.P # f 0.+.&.<.:.5.-.%.=.' O.' ' -.;.=.$.=.#.c ",
"t 5.] =.{ #.{ :.=.;.;.X.#.{ O.#.=.#.{ 5.e O R X.%.=.=.#.-.-.=.:.=.=.#.#.#.%.%.{ 5.K + r 5.%.=.;.=.%.:.;.;.:.;.=.$.=.=.%.%.;...l ",
"u q.%.:.;.#.o.#.O.{ ` | =.$.( ' | { =.,.9 + ! 5.;.;.-.O.o.$.#.{ | =.;.O.` ..{ ..5.S + p e.-.<.>.#.#.$.=.#.{ ..>.-.) | ..=.,.` k ",
"d 9.;.=.;.{ #.) $.:.:.;.` ) ' '  .=...e.e + ^ w.=.,.{ { ' O.:.6.,...) O.) ..;.=.e.P # y y.;.;.;.{ %.O.-.1.5.:.` O.' =.X.;.,.%.z ",
"u e.5.=.;.-.:.#.%.6.r.<.#.O.#.#.,.4.$.9.e + ! r.;.;.%.6.;.%.:.8.0.=.{ { $.>.5.&.8.P $ y u.7.:.;.:.:.%.:.7.r.7.] #.#.-.5.6.6.{ v ",
"w #.) Q ( / ( R E W ] ^ ! ^ ^ ( ( ' E ( 8 O L %.( ( ) ] R E E o.) ! ^ ^ ^ ( ) ( ` M + w ;.{ ( ( ) ) ^ E ) +.( ( ^ ( ` ' ' / P k ",
"@ # # + + + + O O # O O O + + + O + + # .   O O # # O O O O O @ O O O # + + + + + X   X @ @ $ # # O O O @ # O O O # + + # + + % ",
"6 Y S G B B C H A V B B Z N m N B M B P 4 O m H G V N C L L A B N G B m M V B B L l o 6 T G G B B H A A V B Z Z N M V V N G N s ",
"p r.6.6.7.&.r.0.6.&.4.5.7.$.#.-.;.$.6.a.p O / 9.6.9.&.8.p.0.<.4.4.8.<.=.%.-.#.&.a.( $ i p.7.8.7.6.i.p.6.<.4.7.9.%.=.:.;.%.8.7.n ",
"r 8.:.4.%.) &.&.#.] +.+.-.;.) $.#.+.#.i.r + R 7.4.:.$.$.<.%.{ +.#.%.:.O.#.-.O.@.r.T + r 9.7.4.%.O.*.4.%.O.@.%.:.-.O.:.$.#.6.:.b ",
"w w.7.:.%.&.3.*.%.) / -.;.#.' %.{ ' #.0.e O T r.6.%.#.:.*.2.{ W $.:.;.{ %.%.{ ' 9.R @ e r.9.6.%.&.6.3.&.) o.:.,.#.%.-.=.{ :.%.b ",
"t :.#.#.$.-.6.:.<.=.] { =.-.' ;.{ ) ' r.u + T :.{ &.%.6.1.<.:.{ ' =.:.' =.;.' ) 7.R $ e 7.-.;.&.6.6.<.<.-.{ %.:.%.=.;.{ ' ;.:.m ",
"t :.%.:.%.+.6.%.@.$.-.%.#.-.=.7.` ' $.9.e O Y :.4.:.+.:.:.@.@.;.-.#.-.%.,.-.` #.0.P @ e 5.-.4.%.$.6.&.$.-.:.-.$.-.;.7.| ' 6.=.c ",
"t =.{ { { +.:.;.=.%.) #.) ) %.' ` ..;.0.r # P ;.{ { { &.4.;.:.+.' #.) #.=.' ..;.r.Y + e 5...#.{ ;.:.:.5.%.O.$.O.#.;...{ ;.8.%.z ",
"r 4.%.5.X.{ -.;.;.#.+.#.o.$.6.' =.:.` w.y + T :.4.5.{ =.:.>.%.#.@.o.#.6.%.#.:...>.R $ r 5.4.5.>.#.:.,.;.$.@.O.+.:.6.{ ;.,.=...m ",
"u 7.X...=.] =.` =.#.-.:.#.=.=.-.#.=.` X.w # E 4.{ =.{ %.{ { X.%.<.-.=.=.:.=.=.{ X.F + u 9.>.;.=.#.=.{ =.:.:.1.=.;.:.;.;.X.{ ~ l ",
"t 9.;.%.{ { %.] ] { :.:...' ` =.X.X.[ u.e O R 7.;.X.{ %.{ ] { &.,.;.{ { { X.;...e.R + r 9.4.=.#.%.%.{ { %.1.,.=.' { =.;.X.>.,.b ",
"r 5.#.%.{ -.$.#.5.-.' O.| O.` ' =.| =.e.w O R 5.=...:.:.%.;.4.#.O...O...` =.O.| w.Y + r e.;.%.=.:.-.;.4.:.#.=.=.=.| | ;.O.>.=.z ",
"f 1.{ #.#.=.;.=.-.#.=.=.' ' ;.) #.{ _ >.w @ E :.#.+.#.;.=.;.;.=.;.O.( =.=.#.#.` >.G + p 8.=.%.#.-.;.;.:.;.=.=.) { ;.$.=.=.} ` l ",
"a 7.;.:.' %.=.;.+.{ } =.' ( ) 1.:.-.` >.w @ Q 4.4.%.#.;.;.%.+.......' ) -.1.:.#.>.G + a 0.5.:.#.%.:.;.$.{ ..%.' ' $.1.7.;...` c ",
"f 9.$.<.&.{ %.6.%.[ ` =.| ) ) | ..| =.7.w @ ( 7.-.<.#.+.6.:.{ ` =.=.' ) ' ..| =.5.J $ f r.:.1.%.#.4.6.;.[ ..=.=.) ) O...=.,.' b ",
"f 0.{ +.&.%.,.%.:.) ' { ^ ' ) ;...#.' 8.e # ( :.#.$.:.:.:.:.%.' ) ' _ ' -.-.=.#.5.P # h r.+.%.<.5.5.:.-.#.' { ` ' %.,.=.=.;.=.x ",
"t 5.] =.=.$.=.-.{ %.;.#.#.O.=.#.%.' { q.w O ! ;.#.%.-.=.-.=.=.:.;.{ #.$.=.%.%.' 5.K + y 7.#.$.-.#.%.:.=.;.:.=.#.$.;.-.-.=.=...x ",
"r q.%.=.-.=.o.$.=.=.] } =.%.' ' ..{ =.,.9 O ! 5.;.-.=.+.@.=.=.{ ....-.O.` ..#.=.5.S + u e.;.:.;.#.#.$.;.=.=...-.$.` | =.=.;.' k ",
"f 9.;.;.;.' ' ) O.;.;.=.' O.' ` ` ..=.e.w + ( 5.;.,...O.) #.;.:.;...#.' ' ......9.H + d y.;.5.;.{ #.O.$.:.,.;...$.' ....;.>.=.z ",
"u w.5.X.X.#.4.+.%.6.8.:.' ) { { ,.:.$.8.e + R r.=.X...:.%.#.6.8.8.#.' #.#.;.,.&.9.P + u p.5.>.=.;.4.%.:.7.r.5.] ' #.;.,.4.6.{ v ",
"u 9.:.%.-.:.;.{ #.&.6.%.#.;.+.;.%.5.%.>.e # ^ e.:.:.4.4.=.+.%.6.:.;.=.#.-.;.:.:.:.G $ u i.5.;.4.6.:.{ %.6.6.;.=.;.;.:.:.4.:.` c ",
"& : : ; : - : = = : : - - = : ; = : ; ; o   * > ; : = ; ; * ; : ; - - ; : - : : : $   + , : ; ; ; ; = = > : * - = : : ; : : * : ",
"2 g f f u y u h a p u u f u t y u y u j : . r f f p i u h h a u u p f r y i u u j 9 X , l f f y u p g g p i f f i r d f u f y 5 ",
"a y.4.7.7.:.0.p.8.:.:.5.7.-.$.=.-.$.1.a.f @ ) e.6.9.:.9.p.i.<.4.5.w.,.=.=.:.$.&.p.( $ a a.7.r.7.6.p.p.8.<.4.e.8.-.=.,.;.-.8.7.m ",
"t 6.:.4.;.o.:.<.#.o.@.+.-.%.' =.#.+.$.p.i + R 6.4.5.#.$.6.:.+.#.#.-.:.' %.-.#.#.i.E @ r 9.6.6.:.%.<.6.%.#.@.%.:.-.O.:.$.#.6.1.m ",
"r 8.9.2.#.+.*.&.%.) / $.;.#.{ %.{ ' { r.e X T r.6.:.+.&.*.&.+.) +.:.;.] $.=.{ { 8.I # r r.0.6.$.&.3.&.%.) o.;.:.%.#.:.=.#.:.%.v ",
"t :.;.+.&.:.6.*.:.#.) ..;.%.( :.{ ) { r.u + I 1.%.&.&.4.6.6.-.) { -.:.] =.=.' ' w.R # w 7.;.%.%.6.6.6.6.$.' ;.5.#.{ ;.#.' ;.;.n ",
"t :.%.;.%.#.:.&.@.$.;.$.$.,.O.1.` ) %.e.r + Y :.:.4.+.:.4.$.@.=.=.#.-.#.1.;.' #.7.Y # e 7.;.4.%.%.6.:.@.-.:.%.-.;.;.5.{ ' :.;.b ",
"r ;.#.{ { { :.%.=.$.) $.) ) =.=.` X.:.8.w + P ;.#.{ { :.:...:.#.O.$.o.#.;.` ` ;.0.L # e 5.;.#.{ %.<.:.-.$.O.-.O.$.:.=.[ ;.8.#.z ",
"t :.;.;.X.{ -.;.>.%.o.O.) %.1./ { :.` t.y + Y :.;.;.{ %.:.,.-.+.#.o.+.6.%.' ,...7.T $ e 4.;.5.X.#.:.5.>.$.+.#.o.&.1.' =.,.=.=.m ",
"u 7.=.>.=.] -.' ..#.$.:.#.%.:.;.=.=.` X.w @ E :.;.>.] ;.#.=.=.%.:.$.;.:.:.=.=.{ ..G $ i e.;.,.=.=.-.=.=.$.<.:.=.:.,.:.%.;.[ ` z ",
"e 9.;.{ %.{ #.( ' #.:.,.+.` | #...X.[ w.e O R 7.=...{ +.] [ #.:.1.;.' ` =.=.=. .q.Y + t r.4.X.#.#.{ ] { ;.4.1.=.{ | =.;.X.>.X.z ",
"t 5.-.;.{ %.%.#.;.%.#.#...{ } ' ;.{ =.r.e O R 5.-.=.:.%.%.%.:.=.#.=.=.| ` -.=...t.Y # r 9.:.;.=.4.&.;.4.:.#.=.=.=.} =.-...5.;.x ",
"u 4.{ +.+.=.;...:.%.=.=.) ` =.) +.' ~ ,.9 $ E -.{ { %.-.{ ;.;.=.;.O.) =.{ ' #.` >.G # y 7.#.#.$.;.;.-.:.;.=.=.O...=.#.#.'  .` l ",
"f 9.%.-.{ %.;.=.#.#.| =.) ( O.:.:.-.` >.w $ ( 4.4.#.#.=.;.;.%.' =.{ ) ' -.6.:.{ X.G @ a 0.:.-.#.=.:.;.;.=...=.) ' %.<.7.;...` c ",
"f 9.-.:.%.] %.6.{ [ ` =...) ) ' ..| =.5.w @ ( 7.6.<.#.+.6.&.{ ` | X.' / O.=.....,.K @ p r.6.6.:.+.:.6.%.` { =.=.) ) =.=...>.' b ",
"f 0.#.$.:.%.5.-.:.) ( { _ ( O.>.{ #.=.7.t @ ) 4.#.:.-.:.5.4.#.( ) ' _ ) -.=.=.=.w.P @ f r.=.-.<.:.:.1.:.{ ' | ' _ #.>.=.;.>.O.b ",
"y 5.] %.$.%.=.=.#.%.:.{ ' ' $.#.%.{ ] q.w + ! ;.#.%.%.;.;.#.#.:.;.{ #.#.=.%.$.` 5.K # y 7.+.%.:.;.:.;.%.;.:.#.{ $.-.:.-.#.#.=.x ",
"r q.+.=...$.+.&.=...{  .=.=.) ' ....=.,.0 O ! ;.%.=.=.+.&.-.=.{ ....=.#.' ..=.#.5.G O y w.;.;.;.%.#.:.;.=.=...;.$.' O.;.=.>.` k ",
"d 9.=.;.:.{ ' ' #.=.=.=.#.$._ ' } ....5.w O ( 5.=.5.=.' ) ' ;.;.=...$.' ) | ....7.J O p t.;.4.:.' O.O.%.-.;.=.=.=.` { ....5.#.l ",
"s 9.5.....{ -.+.%.6.7.-.` ) ' ) ;.;.%.8.w # R e.=.=...;.%.%.6.7.8.#.( ' O.=.;.%.7.P # y r.,.>.{ =.:.#.:.9.9.,.) #.{ =.>.:.:.#.z ",
"r r.5.4.4.6.:.=.%.:.7.4.;.;.=.:.:.6.:.5.e O ( r.4.4.6.6.;.%.:.8.7.;.;.;.;.4.7.:.7.H $ u a.5.5.4.6.4.%.-.6.0.4.;.-.;.4.7.6.4.{ c ",
"3 h h y p u p r y p f y y y p u u f u f : # e j u u u p u r i f d r u u u u f p d 6 # 1 j h p p p u u y f f y u u a d p f f t 7 "
};
