/* XPM */
static char *bc15b1adcdd94840d599589505af81d6[] = {
/* columns rows colors chars-per-pixel */
"64 64 219 2 ",
"   c #470D00",
".  c #4F0C03",
"X  c #550D00",
"o  c #5A0E02",
"O  c #5B0E09",
"+  c #4E1303",
"@  c #4C1900",
"#  c #541302",
"$  c #5C1402",
"%  c #551B02",
"&  c #5C1A01",
"*  c #54130A",
"=  c #5B150A",
"-  c #5D1A09",
";  c #53180A",
":  c #5F1512",
">  c #630D02",
",  c #6A0E01",
"<  c #621502",
"1  c #6A1501",
"2  c #641B02",
"3  c #6B1C02",
"4  c #63150A",
"5  c #6C170A",
"6  c #641C0A",
"7  c #6B1B0A",
"8  c #731602",
"9  c #731D02",
"0  c #791D02",
"q  c #741F09",
"w  c #781909",
"e  c #651912",
"r  c #5E2200",
"t  c #522101",
"y  c #642202",
"u  c #6C2302",
"i  c #672A05",
"p  c #6D2902",
"a  c #65250A",
"s  c #6B220A",
"d  c #6D2909",
"f  c #732402",
"g  c #7B2402",
"h  c #742B01",
"j  c #7C2B02",
"k  c #74230A",
"l  c #7B250B",
"z  c #742A0A",
"x  c #7C2C0A",
"c  c #753204",
"v  c #7D3202",
"b  c #7E3902",
"n  c #7B320A",
"m  c #692410",
"M  c #772611",
"N  c #832503",
"B  c #832C02",
"V  c #8A2D03",
"C  c #822209",
"Z  c #822C0A",
"A  c #8A2E0A",
"S  c #972F0A",
"D  c #843303",
"F  c #8B3402",
"G  c #853A01",
"H  c #8C3B02",
"J  c #84330B",
"K  c #8C330B",
"L  c #843C0A",
"P  c #8D3B0A",
"I  c #923502",
"U  c #993702",
"Y  c #933B02",
"T  c #9A3C03",
"R  c #93340A",
"E  c #933D0B",
"W  c #993C0A",
"Q  c #842D12",
"!  c #873015",
"~  c #8E3211",
"^  c #8B3B12",
"/  c #983D10",
"(  c #A33C03",
")  c #A43D0A",
"_  c #A83C0B",
"`  c #8C4302",
"'  c #8D4900",
"]  c #8C440A",
"[  c #864309",
"{  c #944303",
"}  c #9B4402",
"|  c #944902",
" . c #9C4B02",
".. c #94420B",
"X. c #9B430A",
"o. c #9B490A",
"O. c #974C0B",
"+. c #975000",
"@. c #9B5201",
"#. c #9F500D",
"$. c #934311",
"%. c #984211",
"&. c #9D4D10",
"*. c #A34502",
"=. c #AA4502",
"-. c #A44C03",
";. c #AB4D03",
":. c #A2450B",
">. c #AC470B",
",. c #A34B0A",
"<. c #AA4D0A",
"1. c #B34C02",
"2. c #BB4A02",
"3. c #B24B0A",
"4. c #A45202",
"5. c #AB5402",
"6. c #A65B02",
"7. c #AD5A03",
"8. c #A45209",
"9. c #AC540A",
"0. c #A4580B",
"q. c #AB590A",
"w. c #B45402",
"e. c #BB5503",
"r. c #B45B02",
"t. c #BB5C02",
"y. c #B4540A",
"u. c #BC550B",
"i. c #B35B0A",
"p. c #BB5D0B",
"a. c #A04C10",
"s. c #A94F10",
"d. c #B14D12",
"f. c #A25211",
"g. c #AA5012",
"h. c #B35812",
"j. c #AF6001",
"k. c #B46202",
"l. c #BC6202",
"z. c #BE6A02",
"x. c #B6630A",
"c. c #BC6309",
"v. c #BC6A0B",
"b. c #BF7200",
"n. c #BC6012",
"m. c #C55602",
"M. c #C35D02",
"N. c #CA5C01",
"B. c #C45D09",
"V. c #C95D09",
"C. c #C36402",
"Z. c #CA6502",
"A. c #C46B02",
"S. c #CC6B03",
"D. c #C3640B",
"F. c #CB630A",
"G. c #C56B0A",
"H. c #CC6C0A",
"J. c #D26603",
"K. c #D36C02",
"L. c #DA6D02",
"P. c #D46E0A",
"I. c #C57202",
"U. c #CC7202",
"Y. c #CD7902",
"T. c #CC730B",
"R. c #CF7A0B",
"E. c #D47402",
"W. c #DB7503",
"Q. c #D47B03",
"!. c #DC7C02",
"~. c #D3730B",
"^. c #DB740B",
"/. c #D67C0A",
"(. c #DC7B0A",
"). c #D16F11",
"_. c #CF7112",
"`. c #D57310",
"'. c #D87710",
"]. c #DD7B13",
"[. c #D37918",
"{. c #D07912",
"}. c #E37603",
"|. c #E97702",
" X c #E37C02",
".X c #EA7D02",
"XX c #E27409",
"oX c #E37D0A",
"OX c #EC7D0A",
"+X c #F27F0B",
"@X c #E07D12",
"#X c #D58101",
"$X c #DD8301",
"%X c #DD8A02",
"&X c #D78309",
"*X c #DD8409",
"=X c #DD8A0A",
"-X c #DF8314",
";X c #E48402",
":X c #EB8402",
">X c #E48A02",
",X c #EB8A02",
"<X c #E4840B",
"1X c #EA850B",
"2X c #E48A0A",
"3X c #EC8B0A",
"4X c #F28501",
"5X c #F18A01",
"6X c #FA8B01",
"7X c #F28409",
"8X c #F18B0B",
"9X c #E69200",
"0X c #EC9001",
"qX c #F49102",
"wX c #F89200",
"eX c #E38513",
"rX c #EF8610",
"tX c #ED8F11",
"yX c #F08E11",
/* pixels */
"W E.=XQ.K.K $ r.5Xr.% z y.K.L.l.Y p ..E.:Xw.V 3 & 3 ) H.,Xc.$ H E.,X:X:X%XU.C a W.:Xt.f $ 7 1 s K r.;XS.F k D :.-.b $ f ~.2X-.< ",
"W K. XW.w.2 j  X^.g f E.>X>XU.R.,XY.{ x @.Q.:X~.C.A.W.:X;X-.X Y /.;X<X>X;X8.< { ,XA.f h 7.Q.!.S.-.N x A.:XC.G f > < j r.:X X} < ",
"n w.m.w.j 2 r.,X4.y T.3X7.B k 0 B p.>XE.V h 7.:X:X:X>X;XE.E * n S.!.:X;Xc.h u E.%XB h G.7X X~.[.;X<X6.j Y {.2XE.p.r.z./.:XQ. .$ ",
"$ f ! u < I !./.e  .3X8.$ F <.7.Y f F E.:X..6 | E.2X%X<XW.5.r @ H w.Z.u.c $ -.5Xh.8 M.wXD.D 2 $ g -.;X/.v h C.5X,X!.Q.:X:X;Xr.k ",
"j < > & H `.,X .3  XE.f P Q.4X,X3XI.b u E. XF % ;.W.;X<X}.K.} 1 # y p 2 * F Q.oXj K :XU.2 y Y } K & F ;XW.Z x C.>X2X%X:X:X:XW.u.",
"C.;.X.4.H.:XE.u G ;X9.9 H.,XoXE.!.4XE.p H :XZ.= R L.>X2X;X:XW.y.D 2 & & V H.0XC.f 4.>X} : 4.}.:X!.8.& { qXl.1 -.!.:X!. X:X:X:XW.",
":X:X!.!.2X:Xr.* o.>X{ g U.,XH.w.Z.|.:X%.0  X~.: H Q.>X%X%X>X>X;XXXD.i.5.Z.<X%Xw.3 r.5XT $ x.:X:X>XW.v s !.!.g H  X3XQ.C.z.I.#X2X",
"#X;X:X2X:X X-.+ ;.9X;.8 A.5XU.M.l.<X:X,.9 $XS.t } 1X:XJ.N.M.S.$X>X:X.X}.%X2X!.e.5 5.4Xi.%  .1X,X>X XD 4 S.!.g Y ;X$Xw.D k j *.S.",
"-.P. X%X<XXXw.& B $X/.l B Q.,X$X.X,XQ.Z H :X;.2 P.:XM.R 3 a N -.U.%X>X>X>X>X*XS.u h U.2XH <  .K.E.0.4 v :XZ.u y.,XZ.s + $ > $ u ",
"r -.K.!.;X;XH.{ < } >XA.x Z t.oXoXU.{ 5 l.*XA G >XH.g o u 1 1 6 *.K.;X3X;X:X:X>Xt.l ! W.;XY 4 u y - 1 t.1X:.p Q.2XB $ n } ( j # ",
"+ N M.oX;X>X2XQ.o.y L !.E.` u N Z 8 3 <.9X7.5 Y.;XE 4 I 7.w.U = f C..X X;XW.E.<X5XK.I g k.>XI. .X. .A.qXl.f } 4Xr.$ J C.Q.Q.p.c ",
"% f M.:X;X;X:X>X6XS.G f r.$XE.y.{ -.S.qXU.g H ,XD.< F J.$XQ.t.f 7 r.:X;XZ.H J K 7.~.:Xr.j G A.OX:X,X3Xz.f j /.;Xh u l.:X:X>X!.4.",
"= B E.>X~.w.Y U -.E.3Xl.B j y.E.<X>X:XZ.f u H.7XF 2 p. X<X#XC.j s C.3XG.f = y j d u Y E.!.5.j B T  .F 1 k z.3X7.# } ^.:X>X>X;Xe.",
"= ( ,XQ.P 1 9 j B f A D.;Xv.G f B D F < < j.3XZ.u j Z.$X2X.XB.s B .X(.j 2 9.Y.<X XS.*.g Y Q.;Xu.I x f I C.5XXXH # r.:X%X<X:X<X<.",
"y I.3X} 3 } U.=X XK.5.Z B C.2XE.| z p h 9.$X;Xz.3 9 B. X;XL.} < 4.5X<.& r.5X!.S.r.U.:XW.-.z { .X3X}.U.$X;X:XF.f & r.$X>X2X,XT.G ",
"..,XG.8 X.3X:XA.j.C. X>X9.g U E.5XXXH.U. X:X<XN.u & -.M.Z.*.y h W.!.g ] ,XJ.l 1 9 k k 9.;XI.G 3 k.OX,X>X=X1Xt.i $ W K..X:X!.-.$ ",
"U.:XK j  X;X[ r $ 4 3  .2XE.N f z.4X7X;X>X*X%XK.Y < 4 D v : 3 r.:X0.2 /.Q.k x w.E.Z.5.h B /.3XH < } Q.oX;X XZ.{ * 2 } r.l.<.3 & ",
":XG.2 7.4Xo.# A 7.i...$ H ;XW.p x S.2X>X;X;X>XoXA.W f < > k -..X!.1 { ,X-.u G.:X:X:X3X~.D N Q.#Xp u r.^.%X%X}.B.F $ X u i ; $ -.",
",X9.5 Y. Xk h J.;X5X|.X.$ 5.,X9.$ w.;X>X X;X:X,X:XQ.r.-.*.e.(.5Xr.$ l.:XZ I .X>XS.S.E.5Xl.3 e.,X#.o -. X>X%X>XOXT.y.B < & 2 Y ^.",
";X..9 Q.$Xf v .X9X=X<XI.u Z 1XA.2 5.;X;XK.t.l.U.;X5X:X X!.$X>X!...4 z.;XN T :X/.p.5.z.rX#Xn W :Xy.< r.:X:X%X$X:X,X:XS.r.-.1.Z.;X",
" X,.< M.,X$.= r.:X>X,XA.1 A ,Xw.1 M.5XS...k u j 8.A.oX3X;X>X>XW.Y $ v.,XY f Q.:XK.t.I.8X#Xj ) ,X{ u S.1XE.l.7.e.U.$X>X:X}.~.$X:X",
":Xl.u K oXE.g u <.S.M.H # 6.>X} f !.>X{ < $ & o $ h i.^.:X>X;XW.h.$ b >X~.k L <X:X,X:X:Xr.9 t.%Xz H ;X(.} f 1 q J r. X:X<X;X>X>X",
":X2Xw.3 W ;X/.G 2 < & % ' >X~.2 5.>X7.< h o.7. .p # h w.!.;X>X>X~.Y $  .,XA.9 C p.E.E.y.9 H >Xk.3 A.,X*.& 6 g u $ N e. X3X:X;X<X",
"P.;X3XA.h D H..X~.y.w.Z.5X XV f (.(.g 2 l.|. XW.u.f # { E.$X2X;X2X;X-.5 H $X/.{ u q 3 3 H Q.<Xx P 3XC.w u 9.m.7.z $ { Y.>X$XE.P.",
"l F w.(.!.<.g F D.(.>X;XS.F 1 c.6X,.# @.*X>X;X:XE.{ X Y !.:X:X/.Q.!.5XE.K f 4.:X(.M.r.F.4X>X..2 U.:XF 4 w.}.|.S.=.$ F E.>X~.%.c ",
"u b p d @.!.Q.5.B 0 B B 5 9 5.>XT.u u `.:X:X:X=X}.` $ 8.>XeXy.V g B { A.>XZ.J i ;.H.$X!.E.` # -.>XZ.2 ^ E.;X:X$X1.$ R  X%X..> 3 ",
";X,X XD.X.g T W.].l. .H { C.;X>X9.$ Y }.:X>X:X>XW.v 3 S.>X0.3 9 K I D l B C.<Xc.K 3 p f 2 $ F !.:X;.4 X.W.>X,XW.,.& y.4Xr.2 v T.",
"A.7.9.Z..XE.| p -.<X3X X$X;X:X X` . U W.%X2X%X>Xr.< P >XT.u B A.;X:X:X(.r.g B U.,XU.| K B } E.;X!.T & { L. XoXV.s u W. XB j #X,X",
"3 9 f u j t.2XS.g f k.;X3X:X:XE...@ l C.!. X XS.c 3 G.:XH f U.,XP.5.;.t.!.#X-.8 @.!.1X^.P.E.%X>X}.} # z e.Z.w.H 2 ,.>X5.1 Z.tX-.",
"..Z.}.L.| f Y 3XQ.f u 5.W.;X!.~.w.p * j 4.M.p.G # ..:XA.8 r.5Xi.y 6 & $ k l.,Xu.6 Y !.5X>X%X;X%X&XM.g < q v h < B XX;Xh H ,Xw.7 ",
"XX0X2X;X,Xc.8 { ,XD.> B A. X2X#XE.7.p # & y &   g H.>X} h (.W.f & 8.l.7.z 1 x.9X2.8 *.!.>X,X:X:X$X}.M.V 1 o < Z F.5Xr.2 c. Xj H ",
">X XS.P.;X;X} 3 Q./.k f A.;X:X,X>X.XJ.) f r 5 x e.;X$XB F 2Xt.$ ) ^.3X3Xk.3 j !.$Xf v ~.:X;X@X|.>X4X%XA.u.-.1.C.$X;XP u  XZ.3 y.",
"1XQ.B.V.}.1X7.f G.#Xu x }.:X:X!. X%X,XoXS.r.3.t.Q.:XE.j G >XS.= } *X>X9XQ.L < A.oX~ j U.,XW.C.7.t.W.:X:X>X!./.%X>X~.p j .XS.< w.",
"#X;XE.Q.%X2X-.8 W.~.2 o.,X(.c.-.=.c.E.:X>X;XW.XX;X:X^.N g !.!.h 1 D.1X7XP.c $ S.;XB F .X;Xq.x 3 2 G 7.~.:X:X:X>X:XZ.i y L.(.h H ",
"*.(.3X:X,XS.f [ 5X<.3 ~.,X6.k 1 1 9 Y C.;X%X>X2X>X;X%X7., *.0XS.p y G -.B $ G <XU.1 8.6XD.y * 8 y $ $ F r. X;X;X;XS.H - 9.qXt.8 ",
"k N 3.t.} l N K.$Xk | 4XC.p 2 N J u < I Z.=X>X$X(.>X:XeX,.8 } >XW.P y 2 y G T.3XY f R.!.Z $ Y p.x.o.u X v p.!.>X$XoXS.h & q.1XC.",
"I. .k 2 s B ~.,Xo.2 Y.;XV 1  .D.S.=.8 3 i.;X:X}.Z.D.S.!.,XC.B v K.>X;XJ.S.>X,Xr.2 5.3Xq.o Y E.$X:XW.5.& & -.W.;X;X1X,XE.W 3 | $X",
"t. X.XK.W.%X>XV.-  .5Xr.4 Y P.;X;XZ.V 2 4.:X X7.v 4 s x >.%XQ.5.9 F M.^.!.L.>.5 J !. Xj 9 Z.,X%X2X:XK.h $ 9.;X:X$XT.I.;X5XS.K k ",
"h c -.G.H.T.@.& h !.:XP 6 e. X>X$XH.K 1 r.,Xv.2 % J { G M s } XX(.9.l u k u 8 v G.5Xl.$ o.!.2X%X%X,XH.f 2 C.4X/.-.g f B W K.!.G.",
":Xc.j s & < O h M.,XK.x u M.;X>X;XC.g g !.!.D 4 l.:X4X,X:XI.{ f  .$X;XC.-.{ 9.K.:XoX` X <.:X;X:X%X:Xc.2 v <X!.Y $ Q { } R g G z.",
"Y Y.5XK.-.Y *.x.!.,XA.x 1 -.E.E.H.{ $ -.5X7.$ r.,XQ.5.*.=.S.%X^.G p e.:X,X:X$X:X;XY.v O o.!.:X2X1X XG $ z.,X>.$ 1.XX>X>X8XW.y.l ",
"Y f f.%X>X<XW.Q.2X;XE.I = k *.1.H 1 x E.;Xh K ,XA.g 3 g g 9 F v.,X0.1 G U.:X3X%X;XS.F o h x./.!.Q.0.$ Y  XT.f } >X(.l.} } t.$X!.",
"2XY 3 -. X:X:X:X:X:X:XM.B $ - < < 0 B.:X7.& H.;XB f p.Q.#XS.U 3 w.3Xr.- x Z.;X:X:XQ.w.f # u { ;.U t 2 Z.8X{ d  X X] % - 5 < j S.",
"L.:XH u Z.;X,X;X$X2X:X.XZ.} j u D r.2X}.h h :XM.8 y.3X:X<X,X^.*.9 S.:XG = 5.Q.3X%X:XQ.r.G < o $ O % 5..X/.9 ,.5Xw.r c e.K. .s y ",
"*.4Xt.< <.!.>X(.U.~.(.4X5X!.H.N.H.!.,XH.2 | ,X-.9 ~.:X!.U.Q.2XE.f ..>X7.< -.%X:X%X:X:X:XP.9.F z v o.W.:Xk.1 t.:XX.$ c..X>X*Xd.& ",
"G  XH.4 g.,X$Xu.U H o.c.Q.>X,X$X:X>X X5.$ 5.3X-.2 ).;XU.Z.~.>XoXD J >X7.< c.>X;X~.H.W.:X:X:XE.z.A.^.;X:X7.< y.qX8.# 6.:X2X>XM.u ",
"E ,Xi.5 l.,Xc.g * X # p } S.;X%X>X:X X-.$ H <XC.0 -.=X>XW. X:XE.p *.8XH p Q.1XF.Y F Y 4.A.;X5X,X;X;X,X:Xt.3 P ;XH.3 h N.}.Q.5.$ ",
"Z.>XY h !. XD # h H j $ # B M. X%XOX$XA.n $ Z.3X,.2 4. X5X:X!. .5 A.!.g o.4XS.B # 4 < < F D.$XeX;X,X;X2X~.} 7 r.5Xc.2 6 G v 6 2 ",
",Xb.2 <.,Xq.X R m.~.K.;.u # Y Z.;X>X%X XZ.h y S.,X-.8 V *.5.F & } +X7.r E..XL < B } T h $ Y L.;X2X1X:X:X>X$X} 8 5.>XS.{ h 2 J C.",
"'.j g Q.;Xf p A.<X>X XE.{ * Z S.:X:X2X>X4XE.{ - -.;XQ.W l p f >.;X].f { 3Xw.< F D.T.S.*.$ 9 D.;X.XK.k.7.S.:X1Xz.k K K.:X;X$X,X>X",
"B 8 p.5Xy.$ | !.1X%X2X:X5.$ G Q.>XoXS.y.G.;X;XC.B D c.;X$X/. XtX XG 1 `.$XH 7 p. X2X}.m.p u A.>XE.{ 2 & & h 8.&X!.-.k K y.S.Z.w.",
"9 5.1XQ.v 1 l.1X:X%X;X X} o } 2X$X .0 1 6 s *.S.&Xr.j p ,.C.S.t.B < { ,XS.f V J.:X>X Xe.u j Q.;X| o l -.e.*.B w ,.Q.!.9.N q & y ",
"v.$X:XH.u y C.:X:X:X:XQ.v 1 A.1XX.5 v w.x.4.T N E H.2Xw.N 3 % % $ P ~.,Xc.1 F Z.:X%XE.o.4 *.7Xc.$ { -X:X X;X%XU.' h -. X>XC.y.w.",
"%X>X;XC.u - 6.}.;X>X$X,.< { qXZ.3 U W.8X:X:X:X^.*.p {  X>XG.;.:.4.C.:X>Xw.1 s w.J.S.5.f g Q.!.k D >X;X8.n g Y k.+XY.v k k.%X8X:X",
":X,X%XC.V X c 7.G.I.7.3 3 S.1XF D W.7Xc.b h G r.4X~.h l Z.3X%XQ.E.!.2X;XC.K o h Y E g < w.0X4.2 E.!.I 1 F *.W 3 j K.>X+.< :.Y.>X",
"1X:X X/.r.k . d D F u # @.7XN.y r.3X7.& 4 c p $ H /.(.D y z.,X:X;X<X>X>X;Xe.j ; # o 6 X. X}.g [ ,X,.4 i.:X>X;X~.R 9 A.3XW > *.!.",
";X:X%X%X XV.F 1 o o 1 { Q.3XT f ^.!.p u w.}.E.5.$ F 2XE.1 T  X<X;X}.}.:X>X!.Z.*.K S <.E.,Xj.$ S.}.s T OX;X X!.<X!.J M  XW.1 v S.",
";X1X;X X:X>X/.i.{ } -.A.>X^.V v $XT.1 G *XeX=XW.W < C.>XP 8 S.9X!.C.t.A.Q.,X,X!.E.T.#X:XQ.b u ~.Y.3 u.:X!.l.t. X9Xw.3 I. Xg h `.",
"%XS.C.B.S.$X,X>X!.E.Q.;X,XP.V h !.Q.f j W.:X,X.X4.& 7.0XE z Y.>XF.Y p c Y C.!.:X4X3X%X:X~.h s ;X/.2 -.:XQ.C.M.^.1XA.8 v.%Xf v :X",
"W.} j u J -.K.:X>X:X1X<X:XQ.} < B.,X .$ Y U.%XS.L $ l.:XJ D :X}.F < * # X 7 ..S.}.;X%X$XS.D < A.4X| 9 K.,X<X!.>X1X .9 W.Y.3 ,.:X",
"X.9 $ $ < 1 } S.%X;X:X:X>X3XH.B h H.qX-.4 a c f = F 2XH.3 ;.6X;.@ u W =.b # # G z.!.:X<XE.4.1 x oX!.g f x.(.;X$Xc.p U :X@.u E.2X",
"5 f W -.I < 2 1.Q.:X>X$X!.<X,XE.G g C.1XD.Y f j -.E.,XH g  X Xd y q.W.W.H.O.& 2  .K.:X*X2X!.4.u D E.<X{ f j Y K < V E.$Xg W ,Xl.",
"5 =.Z.U.t.c $ ( ^.7X~.k. .-.C.&X:X<.k Y K.8X:X;X2X:X-.< w.,X7.= _ ].,X>X2XZ.j X } E.,X%X:X:X>XI.G f y.:XI. .I H 8.^.>X .u ~.:XP ",
"G S.#X!.J.P # >.:X$X<.f # 4 2 j 9.;XQ.-.3 F r.D.l.( > P #XoXh 3 S.>X;X2X2XS.F ; 5.1X!.U.m.2.B.!.<Xk.c j Z.oX<X$X>X:Xy.4 { >XS.1 "
};
