/* XPM */
static char *c61ffc921e2c4f8280c7e6dc69e78c56[] = {
/* columns rows colors chars-per-pixel */
"64 64 216 2 ",
"   c #030302",
".  c #090C0A",
"X  c #0D1213",
"o  c #0F171A",
"O  c #161818",
"+  c #10100E",
"@  c #221C1A",
"#  c #22201E",
"$  c #181E22",
"%  c #1B2425",
"&  c #252828",
"*  c #2C3434",
"=  c #353A39",
"-  c #2B312E",
";  c #1D221E",
":  c #763B36",
">  c #70362E",
",  c #453D3A",
"<  c #39403F",
"1  c #504C3D",
"2  c #6D443D",
"3  c #78443D",
"4  c #3B4343",
"5  c #3F4948",
"6  c #444C4C",
"7  c #464847",
"8  c #48514E",
"9  c #58574C",
"0  c #4B4E51",
"q  c #4B5453",
"w  c #4E5858",
"e  c #525B5B",
"r  c #585857",
"t  c #534D4D",
"y  c #6C4A44",
"u  c #7B4B45",
"i  c #774B47",
"p  c #74524D",
"a  c #7B534B",
"s  c #795954",
"d  c #6A574F",
"f  c #54605E",
"g  c #7C625B",
"h  c #666456",
"j  c #595E61",
"k  c #5C6364",
"l  c #5A6566",
"z  c #626B6B",
"x  c #666768",
"c  c #6B7575",
"v  c #737B7B",
"b  c #777979",
"n  c #70716B",
"m  c #343F41",
"M  c #853D35",
"N  c #933F3C",
"B  c #87443C",
"V  c #93423E",
"C  c #844A44",
"Z  c #894A46",
"A  c #934C45",
"S  c #944C4B",
"D  c #994945",
"F  c #8C534D",
"G  c #85544B",
"H  c #97544C",
"J  c #8B5B54",
"K  c #885B56",
"L  c #945C55",
"P  c #9C5B53",
"I  c #995957",
"U  c #9D4B52",
"Y  c #A7544C",
"T  c #A25C56",
"R  c #A85957",
"E  c #A8504D",
"W  c #8C625C",
"Q  c #85645A",
"!  c #94635C",
"~  c #9B635C",
"^  c #99675C",
"/  c #A3635C",
"(  c #AA635D",
")  c #AA665B",
"_  c #B1645C",
"`  c #896965",
"'  c #9C6B64",
"]  c #976964",
"[  c #8A726C",
"{  c #92746C",
"}  c #9A746A",
"|  c #8B7872",
" . c #947B74",
".. c #9A7B74",
"X. c #987975",
"o. c #A46B63",
"O. c #AB6C64",
"+. c #A86866",
"@. c #B46A65",
"#. c #A3736B",
"$. c #AC736B",
"%. c #A77569",
"&. c #B4736B",
"*. c #B7756D",
"=. c #AB7672",
"-. c #A57B74",
";. c #AB7B74",
":. c #A87C77",
">. c #B47B74",
",. c #BD7B74",
"<. c #B67B78",
"1. c #A76F70",
"2. c #A45D60",
"3. c #C47B77",
"4. c #77817F",
"5. c #9B837D",
"6. c #97837B",
"7. c #87837A",
"8. c #A8857A",
"9. c #B3837C",
"0. c #BC847B",
"q. c #B88679",
"w. c #C3847C",
"e. c #C8847B",
"r. c #7E7F83",
"t. c #B87B80",
"y. c #7C8785",
"u. c #838C8C",
"i. c #858987",
"p. c #9B8A83",
"a. c #9B9488",
"s. c #8A9493",
"d. c #889495",
"f. c #959A99",
"g. c #898F90",
"h. c #AB8B83",
"j. c #AC8D89",
"k. c #A48984",
"l. c #B48681",
"z. c #B48B84",
"x. c #BC8B84",
"c. c #BA8A87",
"v. c #A4938B",
"b. c #A6968B",
"n. c #BC948C",
"m. c #B6958B",
"M. c #AB9B93",
"N. c #A89A93",
"B. c #B39B94",
"V. c #BC9B94",
"C. c #B99995",
"Z. c #9BA39C",
"A. c #AAA497",
"S. c #BCA39D",
"D. c #B4A59C",
"F. c #BEA18F",
"G. c #9DA5A3",
"H. c #A7ACAA",
"J. c #B8ABA4",
"K. c #ABB2AB",
"L. c #B8B4A8",
"P. c #ADB4B4",
"I. c #B7B9B7",
"U. c #AAAEB1",
"Y. c #A09FA4",
"T. c #C68B85",
"R. c #C4938C",
"E. c #C9948B",
"W. c #C39B94",
"Q. c #CB9B94",
"!. c #C69994",
"~. c #D49B96",
"^. c #CF8D89",
"/. c #C3A39C",
"(. c #CBA49C",
"). c #CBA49A",
"_. c #D4A49C",
"`. c #C3AAA3",
"'. c #CCABA4",
"]. c #C7AAA6",
"[. c #D6ABA5",
"{. c #C9B3AA",
"}. c #D3B4AC",
"|. c #DAB4AB",
" X c #C8BAB4",
".X c #D6BBB6",
"XX c #E4B3AD",
"oX c #E6BAB4",
"OX c #EBB0AC",
"+X c #E2A89D",
"@X c #BAC4BD",
"#X c #C7C5BB",
"$X c #D4C3BD",
"%X c #D9C3BD",
"&X c #E4C3BC",
"*X c #F8C1BC",
"=X c #BCC7C3",
"-X c #CCCBC4",
";X c #C8C9C4",
":X c #D3CBC4",
">X c #D9CAC5",
",X c #CDD2CB",
"<X c #DCD2CC",
"1X c #D5D3CB",
"2X c #D9D9D5",
"3X c #CCD6D2",
"4X c #E6CAC5",
"5X c #E4D6CC",
"6X c #E5DBD5",
"7X c #F7CEC6",
"8X c #DBE3DD",
"9X c #E9E4DA",
"0X c #E6E2CF",
"qX c #E5EAE4",
"wX c #F2F0E9",
"eX c #DCE5E0",
/* pixels */
"M.C.C./.C..X].C.C.j.j. X XS.C.]./.`./.C.C.`.'./.j.S.[.V.l.n.C.:.-.] ` q.9.8.z.n.m.j.j.b.C.S.C.j.5.5.j.B.h.8.h.k.h.8.} 6.8.m.q.F.",
"5.5.k...` ] K p K j p n [ [ | k.X.| [ ` [ X. .[ ` K K g s Q s p p y 2 a 2 2 G W K Q g g ` | { [ W g Q { {  .{ Q 6.{ g ^ ^ } Q Q ",
"d y p p s ` X.[ ` r.k.N.N.p.k.k.B.B.M.k...6.6.X.5.k.5.5...X.6.h.8.8.8.} ] ] ` W X. .| [ ` ` ` ` 5. .6.6.| ` ` ` ` Q y Q g ^ ` } ",
"oX>XoX4XoX4X.XC.X.p.j.p.6. .p.p. .p.p.6.6.6.p.v.6.v.k.6.p.v.v.B.B.B.B.m.].|.}.'.{. X.X.X X.X X.X&X%X&X%X.X}..X%X&X{.F.{.{.}.{.|.",
".X4X].|.!.]./.j.k.v.N.v.a.N.N.v.B.v.p.v.N.B.M.v.N.Y.a.a.J. XL.L.S.b.p.g ` j.n.m.j.D.]. X X X X.X.XJ.].].{.{.{.].`./.F.{.`.{.F.F.",
"(.'.:.} s ] C.].:X>X<X5X6X5X5X>XwX6X<X1X<X:X;X#X<X:X:X6XwXqX9XwXwX9X<XB.g k.j.M.v.B.J.L.J.J.S.J.S.B.S.S.D.B.C.v.S.`.S.`.F.{./.L.",
"K [ } X.] W /..X5X$X XI. X X>X6X>X:X;X#X XI.;X>X:X1X9X9X2X-X1X0X:X:X5X$X[ S./.].B.B.Y.J.].J.].].B.D.`.].S.S.].].{.{.F.M.8.M.M.F.",
":.:.!.!.].W ].].>X XJ.I.I.J. X<X6X:X X X;X X:X<X2X9XwX8X$X,X1X@X1X,X9X2X| ].`.S.{.S.D.D.J.J.Y.J.L.C.B.M.M.B.M.j.v.S.A.8.6.M.M.M.",
"K K oX*Xt.s X..X>XJ.:X-X6X#X X:X6X$X<X>X>X>X>X<X9XwXqX2X6X2X8X6X@X-XK.-X| `.].}.{.{.{.{.J.{. XN. X{./.J.J.B.S.].S.C.k.S..X`.S.S.",
"1.K t.R.t.X.g | A.N.i.7 r r r 7 d 1 t r , , t r 7 9 t 1 h x t t 7.K.A.L.d  .[ s [ [ 7.| n [ X.| [ | [ [  .` [ {  .[ ` {  .[ [ { ",
"G K I W p ` X.B.-X;Xa.- * + # & @ + @ # O j t @ = , , @ ; ; + r K.=X2X0Xg k.F.V.8.6.5.j.5.[ [ X.X.X.` [ p.k...| ` ` 5.{ K a Q ..",
"OX*X*XXX[.XXoX>X;X<XU.i.Y.t r n x x t h x >Xr.. O + # O +   O #XwX3X#X0X| }.7XoX7X7X7X&X>X4X$X]..X$X&X.X.X.X.X4X&X/.'.[.}.&X.X[.",
"^.R.t.t.[.!.&X X1X2Xf.f Y.r.Y.Y.f.s.i.Z.i.3Xb   +   + . .     U.qX=X1X<Xs 8.Q.E._.8.-.).}.h.j..XC.C.C.j.C.V.j.m.(./.[._.R.W.!.R.",
"> > > : ] W .X%X1X2XG.z Y.4.g.r.y.d.i.f.i.,Xv   . O @ + o & $ U.qX=X0X:Xg 8.8.J ! q.).n.F.`./.C.5.X.X.| X.{ y a W W K ] -.9.c.#.",
"S Z C ! :.] }.J.2X2XP.z f.z g.f.d.G.d.d.u.3Xy.  e z z w 4 0 5 =X3X=XwX%X2 J ^ ~ $.~._.).).(.!.(.S.S..X}./.h.} n.1.c.1.! L u L u ",
": 3 3 I J i (.S.2X1XP.j g.z u.r.u.d.u.d.y.H.j X w x z x j l 0 =XwX,X0X:Xa W ^ o.^ F 3 a G s ` C.V.:.j.C.'.(.:.n.Q.|.' o.=.o.>.Z ",
"3 3 S u : K ] C.6XqXU.j d.z y.y.d.d.d.g.d.U.0 o 6 j k j j 0 e 3X3X,X6X>Xp K F 2.+.F ~ ] 1.j.C./.(.8.6.8.z.8.} 3 R.E.o.C F ^ =.q.",
"u : : M S I 1.j.<X2XU.j d.z 4.y.u.d.d.r.g.U.5 o 0 j k k j e l =X3XI.>X>Xy 2 : Z F C ! ] ` ` g s Q p J Q ^ W ^ G J J 3 3 3 > : 3 ",
"2.1.1.@.I S ] j.<X8XU.j d.z r.y.u.d.d.d.g.U.0 o e l z z z z c =XqX;X>X XK !.~.^.t.<.~.[.'.}.}.'.).F.F.)._.).[._.E.9.' %.#.^ %.9.",
"oXoXOX*X*XOXoX4X2XeXP.w u.z v u.u.d.d.d.d.U.0 o j l c c z c v =XqX=X X XW oX7XOX^.~.[.[.[.|..X.X7X&XoX|.[.[.[.[.).q.R.XXXX+XoXoX",
"_.~.,.T.^.>.l.k.>X2XP.0 v l b g.y.d.d.d.d.U.m o w w l l l z z =XqX@X-X>Xp ] =.<.1.>.c.9.:.:.{ :.8.m.8.8.} } -.l.-.' #.R.!.W.Q.c.",
"Z G C C C C 1.j.<X2XP.5 c l v g.y.y.y.d.d.U.m o 8 w f l f f l P.qX=X1X5Xp W I 2.I $.x.x.F./.W.'.F.).W.n.x.n.c.!.Q.c.! W W J ] K ",
"t.1.L Z Z ] -.j.6X2XP.m c z v r.y.y.y.y.g.U.0 o w q w w f w f =XqX;X$X Xp =.=.<.o.q.E.R.).[._.&X|.&X|.XX|.XXQ.Q.Q.!.:.} ] W Q K ",
":.=.<.I C ! 1.C.2X2XP.m c z c r.d.y.y.r.u.U.4 o 8 w m 6 f w 8 @XqX;X#X.Xp ! ~ <.P >.x.x.W.R.8.m.` x.x.n.9.9.] #.#.=.] :.n.h.z.n.",
"1.] ~ Z F ~ ] k.<X2XI.m c j v u.y.v u.y.u.P.q + = 4 6 q w w q @XeX,X:X>Xs W 2.' ^ q.~.E.F.q.q./.l.9.c.c.-.! o.9.:.#.9._.[.|.&X|.",
"] G J I ~ L W j.<X6XP.* r.c r.r.G.y.c y.s.P.< $ < = 5 8 w w f 3XeX,X:X.Xi G I ~ A ^ ^ ^ ^ ^ J J a a a G u 2 3 u u i K W K K W ] ",
"! ! ! Z Z C K { >XeXI.% j j b r.4.y.y.y.s.I.* + 7 < 4 5 8 8 8 =X8X;X;X>Xy K #.=.*.%.^ ^ %.%.%.%.] ^ ^ ' =.<.q.q.<.=.~ ! %.;.} W ",
"XXXXXX~.E.~.n.S. XqXI.% r j b r.v y.v v f.I.& . * = = < 6 w q I.8X;X:X<Xp ! <.0.q.q.q.q.q.F.w.F._.Q.R.E.!.~.Q.E.Q._.Q.T.R.Q.W.~.",
"R.t.<.T.T.T.:.j.>X2XU.* v Y.U.Y.G.G.Z.f.U.H.t x b b b b b i.n ;XeX;X<X5Xp K +.' G F F H L ^ ^ o.#.%.%.^ ' ^ L C H ^ ^ L ^ ^ ^ ' ",
"c.-.' / $.9.:.j.$X<XU.* j v Y.r.d.y.f.f.g.U.b g.Z.N.f.a.s.f.y.2XeX;X>X4Xy a ~ L ) ) ^ ^ o.' ^ ^ ' o.o.' o.$.q.*.$.%.) o.o.o.^ G ",
":.:.+.G F =.-...>X;XP.* o o % $ $ X . O + i.*   & & & & - = = H.qX;X:X<Xy J ;.+.q.%.%.) 8.O.^ ' q.%.o.^ o.O.q.w.*.q.w.q.o.L ^ O.",
"] ] ' ~ o.' ] j..X=XI.m $ o * $ & % O < . p., + - # # & & # * #XqX;X:X5Xp ] x.9.%.%.%.8.8.%.%.;.8.%.%.8.=.$.%.%.) L ) %.o.) &.q.",
"1.1.t.t.t.[ ] t.$X Xg.* $ o j z l q z l * Z.- ; 7 5 e 8 4 f 8 P.qX;X X6Xg ` [ 1.6.^ 8.} 8.F.j./.n.n.z.l.8.9.9.9.9.%.q.E.e.w.e.w.",
"] 1.W 1.2.U s Y..X$XU.* $ $ z z f 8 4.l m Z.* ; 8 5 8 4 w c f K.qX;X$X<X2 y y y y d a d s h d g s s p d p d s g ] a G J F G F F ",
"2 i > i y i i j.U.>XI.* o & j j f q 4.l 5 d.m o 5 4 8 4 e w l P.qX,X>X<Xd { j.R.q.m.8.F.F.F.M.j.D.C.M.j.b.8.h.j.8.} } 6.%.%.o.%.",
"!.^.t.C.t.t.t.Y.].I.P.& o % j 0 e q 4.l 5 Z.* o = 4 8 q w 4 w @XeX=X X>X` C.oXXX|.|.'..X{.}.&X%X}. X{.{.`.S.S./.`.m.q.)._.E.q.w.",
"[._.OXXXc.!..XS.U.I.I.* X $ 0 0 w q f f m Z.* o < 5 < q w f f P.8X;X:X$Xp ] h.#.q.R.F.'.j.m.S.V.m.B.C.C.n.m.n.!.:.~ F I ) H B Z ",
"J ] n.t.s 2.j.k..X>XU.* o $ r 0 q e 8 q = Z.- o = 6 m 5 8 4.z K.8X,X6X<Xd K -.#.8.q.q.{.W.(.W.z.-.:.l.l.l.l.c.T.0.I C A A B V S ",
"^ %.c.l.` ` X.j.>X>XU.* X o 0 7 8 q 8 6 4 d.- ; 4 5 8 = 4 f w K.3X-X6X4Xd K <.9.q.%.8.Q.9.[./.R.c.n.T.c.x.t.T.^.3.U Z D D D E E ",
"u W K ' s U s X.>X6X].& . o j 4 6 q q 4 5 y.* % f 4 8 < 8 5 4 K.eX1X6X5Xs a ^ F ^ o.;.q.a %.q._.n.T.c.<.$.&.<.T.*.Z D R U D E U ",
"%.9.#.#._.:.{ j.%XwX X# o O 7 0 6 e 6 6 8 f.& * 8 < 8 8 5 5 < K.8X:X9X>Xy ! $.o.>.q.w.o.F ^ 8.^ 8.8.%.} %.q.0.0.^.T.P Z H S S A ",
"^ ^ L ! J 3 W S.6XqXI.$ X $ m 7 8 8 q 7 8 Z.- X < = 8 q w w w P.8X-X9X5Xp u F H P H H L Z G H L G G G u G J L H ~ +.P T P Z H H ",
"> > B C 3 K ] [ ].9X>X$ . $ 7 j 0 8 c j 5 y.& % 4 4 8 5 5 w w K.,X;X5X4XJ 9.T.&.) P P O.) O.%.*.q.q.0.q.q.0.e.3.3.*.@.e.,.O.@.&.",
"E.~._.+XOX*X(.X.| <X2X#   o 0 r c q e q 5 y.% & 5 m 8 8 q w l P.;X X X.Xa ;.e./ *.&.O.) _ *.q.e.w.w.T.e.e.e.e.e.@.H U R Y V D A ",
"*.*.,.t.t.t.] 5.g :XI.@ + $ j x z l 6 5 5 G.o & 5 m 8 w f 8 f K.=XK. X6Xu : B B V M M M M M B B B N V V V N N D D D R R V N D D ",
"M S U Z U 2.W !.C.%XU.@ . . 4 j 5 z f 8 6 y.% * 8 m 8 8 8 < f Z.@XK.J.5Xa Z U P Y Y Y ) @.) Y @.*.*.@.*._ _ R E E N E D N D S Y ",
"Z U 2.M 2.t.1.C.4X<XI.+ X & 6 z 8 w 5 5 w 4.* - 8 < 8 8 8 8 z Z.@XL.A..X2 ~ &.Y ) _ ) @.e.e.e.e.e.e.e.e.,.@.R T _ D B B P ) T $.",
"A : U U T.!.t.C.6X.XL.+ t I.I.;X;XH.@X@XP.H.H.=X,X@X3X=X=XK.L.@X@XK.N.>Xi W +.T ) @.) Y q.e.e.e.q.%.O.e.w.>.) / @.P ~ O.0.0.q.~.",
"S S I ~ t.c.1.j.$X6XL.+ t  X<X<X1X1X-X-X,X,X,X,X#X@X#X#XL.L.#XA.@XK.a.$Xg } 8.8.(._._.Q.W.R.n.q.q.w.q.F.R.x.,.q.o.*.c.T.T.T.T.T.",
"#.J L K ] W g N.>X>XN.+ d 1X$X<X$X$X:X$X:X#X#X,X@XL.L.L.L.#XL.a.#XZ.A.$XQ Q L ^ ] ] ] ! ] ] ! J 3 C C F L F G F B u C F F F F G ",
"1.G ! ] 1.X.| j.;X<XH.  1 @XL.#XL.L.L.L.L.L.L.L.L.L.A.A.A.A.a.A.L.A.5.).J L ) P U P U T ~ / ) H O.) %.%.,.>.&.&.w.3.3.3.,.3.,.,.",
"XX[.XX_.[.4X}.Y.I.;XY.  9 A.Z.N.a.b.A.b.b.a.a.a.A.L.L.A.a.a.A.L.L.#Xd W.^ ~ Y 3.3.3.3.3.3.T.e.e.,.,.*.*.*.*.O.@.( +.@.2.U R 2.2.",
"^.T.T.+.1.Q.C.k..X Xp.r.,X9X6X9X0X0X5X0X0X0X0X0X0X0X0X0X0X0X0X0X#Xh h 0X> 3 H A M N M M M M A H B A B M B B M M A A S A S D D H ",
"S B A M : I ] c..X{.b N.A.A.5.5.A.a.5.a.A.D.D.A.A.A.A.L.L.F.F.a.7.1 L.|.C H M A D D D V A A P ) ) @.O.( @.*.&.&.@.) / ) *.3.@.( ",
"D M V B V Z Z c.}. Xk.N.p.M.M.v.A.a.a.a.N.A.A.A.a.a.a.A.a.a.a.a.1 h 0X+XA *._ E Y Y Y Y Y _ _ _ P / / ( &.&.&.$.*.$.O.*.e.e.,.@.",
"D V B B S F i k.4Xj.D.p.D.a.N.6.b.a.a.a.a.5.p.g.A.a.a.A.A.a.A.A.h h F.F.> E E E E E Y Y _ _ _ / / &.*.*.3.,.&.$.O.&.,.,.,.*.*.&.",
"C F u u Z i K j. XN.a.A.@XL.K.L.D.L.D.A.N.a.Y.v.a.p.v.p.| b p.L.h Q A.F.%.C A Y ( _ *.@._ T.( ( _ _ _ @.@.&.@./ Y O.D Y ) Y Y D ",
"3 3 > > : 2 s X.4XJ.N.L.#XL.L.A.D.J.D.D.D.D.].J.B.D.Y.N.v.N.D.L.h 7.F.b.J 3 B B > B M C > : 3 : M > : 3 B B A L B Z > > > > M M ",
"G C Z F K Z s K }.C.B. X5X5X4X1X%X>X.X%X X.X>X%X>X4X%X.X.X<X5X5Xa.F.L.{.8.8.8.%.x.n.-.8.8.:.h.8.c.h.8.8.5.8.z.F.F.F.8.8.F.q.e.q.",
"+X+XOXOXOX~.^.^.W ` ` X.8.6.^ 8.X.X.[ [ ` ` ] ` ` ` s s s ` { { 7.a.F.F.n.~.*X&XXX*X&X.X(./.|.|./.'.'.'.'.}.{.'.{.F.8.q.q.8.q.) ",
"T P ) _ 2.2.2.@.I L ~ L C 3 : 3 2 y 2 2 : 2 u i G i i i a K K ] 1.1.,.@.S S +.+.1.:.l.! ` 1.] U ! +.] 1.t.:.' #.x.;.~ / P P ) ) ",
"A B D U U U U 2.2.I H F A A A B B u 3 C C C F H Z F F 2.~ ! ] 1.U R 3.3._ R @.2.+.<.~.1.1.t.t.1.t.<.1.c.R.1.] 1.o.+.2.O.) Y _ @.",
"<.<.&.+.+.2.S S 2.2.~ L P P P P H H H L I A U H S H U / _ @.@.@.2.U _ R D H ( +.2.R.*X(.C.c.~.(.[.oX.X[.oX'.W.(.9.9.' o.O.~ Y P ",
"/ / Z Z I U S I L +.>.O.O.) *.*.@.$.) @.@.R _ _ ( _ ( 2.*.T.T.*._ _ _ @._ &.w.>.1.c.C.!.4XoXoX!.X.]..XC.'.%X}.{.}.V.W ! 9.0.,.w."
};
